<svg width="112" height="112" viewBox="0 0 112 112" fill="none" xmlns="http://www.w3.org/2000/svg">
<rect x="1" y="1" width="110" height="110" rx="20" fill="white"/>
<rect x="0.5" y="0.5" width="111" height="111" rx="20.5" stroke="#0866FF" stroke-opacity="0.12"/>
<rect x="1" y="1" width="110" height="110" rx="23" fill="#201F54"/>
<path d="M21.4264 79.4941C20.0294 79.4941 18.6323 79.4941 17.2353 79.4941C17.1618 79.4206 17.0735 79.3472 17 79.2738C18.8529 78.9212 18.5588 77.5993 18.5588 76.4389C18.5735 72.0618 18.5588 67.6847 18.5588 63.3076C18.5588 62.1913 18.7353 60.9722 17.0588 60.6197C17.1324 60.5463 17.1912 60.4875 17.2647 60.4141C18.6617 60.4141 20.0588 60.4141 21.4558 60.4141C19.7794 61.0897 20.1176 62.4998 20.1176 63.763C20.1029 66.7741 20.1176 69.7852 20.1176 72.9872C22.1911 71.1218 24.6911 70.8427 27.0734 70.2111C28.6028 69.7998 30.1322 69.3445 31.6028 68.7717C32.6322 68.3751 33.2057 67.5525 33.1028 66.3481C33.0292 65.4228 33.1028 64.4974 33.088 63.5573C33.0733 62.3529 33.3675 61.0016 31.4851 60.6344C31.5587 60.5609 31.6469 60.5022 31.7204 60.4288C33.1175 60.4288 34.5145 60.4288 35.9262 60.4288C34.191 61.1779 34.588 62.6614 34.5733 63.9686C34.5586 68.1107 34.5586 72.2528 34.5733 76.3949C34.5733 77.5993 34.3969 78.9066 35.9262 79.5235C34.5292 79.5235 33.1322 79.5235 31.7204 79.5235C33.4263 78.8331 33.088 77.3937 33.088 76.1158C33.1028 73.5747 33.088 71.019 33.088 68.3016C30.3381 70.4168 27.0293 70.4314 24.0293 71.3862C23.5293 71.5477 23.0293 71.724 22.5293 71.915C20.8676 72.5906 19.7794 73.6335 20.1029 75.6164C20.147 75.9102 20.1029 76.2186 20.1176 76.5124C20.147 77.6287 19.8088 78.9653 21.4264 79.4941Z" fill="#F2CFD9"/>
<path d="M47.2293 79.6536C41.4353 79.6683 37.6412 75.82 37.6265 69.93C37.6118 64.0547 41.4206 60.1624 47.1852 60.133C52.9057 60.1036 56.8028 64.0547 56.8028 69.886C56.8175 75.7613 53.0087 79.639 47.2293 79.6536ZM39.2147 70.4441C39.303 71.0316 39.4059 72.192 39.7 73.2936C40.6706 76.951 43.3029 79.0955 46.9352 79.3011C50.1558 79.4774 53.0528 77.656 54.2734 74.5568C55.4792 71.5017 55.5086 68.4025 54.3028 65.3473C52.2293 60.1036 45.4352 58.7963 41.6265 62.8944C39.8177 64.8479 39.2735 67.2715 39.2147 70.4441Z" fill="#F2CFD9"/>
<path d="M68.161 79.6536C62.3669 79.6683 58.5729 75.82 58.5581 69.93C58.5434 64.0547 62.3522 60.1624 68.1169 60.133C73.8374 60.1036 77.7344 64.0547 77.7344 69.886C77.7491 75.7613 73.9403 79.639 68.161 79.6536ZM60.1464 70.4441C60.2346 71.0316 60.3375 72.192 60.6317 73.2936C61.6022 76.951 64.2346 79.0955 67.8669 79.3011C71.0874 79.4774 73.9844 77.656 75.205 74.5568C76.4109 71.5017 76.4403 68.4025 75.2344 65.3473C73.1609 60.1036 66.3669 58.7963 62.5581 62.8944C60.7493 64.8479 60.2052 67.2715 60.1464 70.4441Z" fill="#F2CFD9"/>
<path d="M79.9552 60.3847C80.2934 60.3553 80.6317 60.3259 80.9846 60.3112C83.4111 60.3112 85.8375 60.2965 88.2492 60.3112C92.2639 60.3259 94.7345 62.6026 94.9845 66.4803C95.2197 70.0789 92.7786 72.9578 89.0139 73.3837C87.3081 73.5747 85.5728 73.5306 83.8375 73.5159C83.1022 73.5159 82.8228 73.7363 82.8817 74.4854C82.9405 75.2051 82.8964 75.9395 82.8964 76.6739C82.8964 77.8049 82.8375 78.98 84.264 79.4941C82.8375 79.4941 81.4111 79.4941 79.9846 79.4941C81.3523 78.9653 81.3523 77.8343 81.3376 76.6886C81.3229 72.3115 81.3376 67.9344 81.3376 63.572C81.3376 62.3676 81.5581 61.0456 79.7935 60.6197C79.8376 60.5462 79.8964 60.4728 79.9552 60.3847ZM82.9405 73.0459C84.9257 73.0459 86.7787 73.1634 88.6169 73.0165C90.5433 72.855 91.9404 71.724 92.7198 69.9614C93.7492 67.67 93.5874 65.3787 92.5139 63.146C91.9551 62.0004 91.058 60.9869 89.7786 60.8841C87.5287 60.7225 85.2493 60.84 82.9258 60.84C82.9405 64.9086 82.9405 68.9626 82.9405 73.0459Z" fill="#F2CFD9"/>
<path d="M17.1932 33.0078C18.6051 33.0078 20.017 33.0078 21.4289 33.0078C19.6752 33.6982 20.0616 35.1523 20.0616 36.4302C20.0467 39.4119 20.0616 42.3936 20.0616 45.5516C22.4692 43.5099 25.3971 43.2896 28.1465 42.5699C29.3355 42.2614 30.5245 41.8501 31.654 41.3801C32.6795 40.9541 33.274 40.1757 33.1848 38.9565C33.1105 37.899 33.1551 36.8414 33.1699 35.7692C33.1848 34.6529 33.1848 33.5366 31.7878 33.0225C33.1996 33.0225 34.6115 33.0225 36.0086 33.0225C36.0978 33.1253 36.1721 33.2134 36.2612 33.3163C36.0978 33.3603 35.9343 33.3897 35.7708 33.4338C34.9088 33.61 34.6859 34.2563 34.671 35.0054C34.6413 36.0336 34.6413 37.0618 34.6413 38.0899C34.6413 41.8648 34.6413 45.6544 34.6413 49.4293C34.6413 50.5309 34.7156 51.5884 36.0532 52.0878C34.6413 52.0878 33.2145 52.0878 31.8026 52.0878C31.8026 52.0144 31.7729 51.8969 31.8026 51.8969C33.0956 51.4416 33.2145 50.4281 33.1848 49.2677C33.1402 46.8441 33.1699 44.4206 33.1699 42.0117C33.1699 41.6886 33.1402 41.3801 33.1253 40.9248C30.7177 42.7461 27.879 42.9077 25.2336 43.6568C23.9554 44.024 22.6922 44.4793 21.4883 45.0522C20.4926 45.5222 19.9278 46.3741 20.0467 47.5639C20.1062 48.1955 20.0764 48.827 20.0467 49.4586C20.017 50.5603 20.0764 51.6178 21.4289 52.1172C20.017 52.1172 18.6051 52.1172 17 52.1172C17.2527 51.9116 17.3716 51.75 17.5202 51.7059C18.2484 51.4709 18.5011 50.9275 18.5011 50.2518C18.5011 45.1844 18.5011 40.1022 18.5011 35.0348C18.5011 34.1241 18.0849 33.4778 17.0149 33.2869C17.0743 33.1694 17.1338 33.0959 17.1932 33.0078Z" fill="#F2CFD9"/>
<path d="M38.2823 33.0234C39.6793 33.0234 41.0763 33.0234 42.4734 33.0234C40.9277 33.7432 41.1804 35.0798 41.1804 36.3136C41.1804 39.2953 41.1804 42.277 41.1952 45.2587C41.2249 48.6958 43.4394 51.1487 46.8874 51.6187C50.053 52.0447 53.1295 50.8109 54.3927 48.4755C54.8089 47.7117 55.0913 46.801 55.1061 45.9344C55.1953 42.4827 55.1507 39.0456 55.1656 35.5939C55.1656 34.4188 54.7197 33.5669 53.5456 33.0381C54.7494 33.0381 55.9681 33.0381 57.172 33.0381C55.3885 33.846 55.6412 35.4176 55.6412 36.8718C55.6412 39.5597 55.5371 42.2477 55.6709 44.9209C55.879 49.4155 52.8025 51.6041 49.6072 52.0741C46.9023 52.4707 44.3014 52.1622 42.1018 50.3556C40.4224 48.9749 39.6347 47.1682 39.6198 45.0237C39.605 41.9098 39.605 38.7959 39.6198 35.6673C39.6198 34.5804 39.4712 33.611 38.1782 33.2291C38.2228 33.185 38.2525 33.0969 38.2823 33.0234Z" fill="#F2CFD9"/>
<path d="M85.3503 32.6289C85.6476 33.1871 85.811 33.4661 85.9448 33.7599C88.1444 38.8127 90.344 43.8507 92.5287 48.9035C93.0637 50.1373 93.4947 51.4592 94.9661 52.1055C93.465 52.1055 91.9788 52.1055 90.2845 52.1055C91.9045 51.1802 92.0531 50.5192 91.0871 49.021C90.983 48.8447 90.7601 48.6978 90.5669 48.6391C88.397 47.9928 86.2272 47.3318 84.0276 46.7443C83.0318 46.4799 82.0064 46.3624 80.9809 46.2449C80.3121 46.1715 79.8514 46.5093 79.6284 47.185C79.4055 47.8459 79.1082 48.4775 78.8407 49.1238C78.1125 50.8864 78.2165 51.1655 80.0743 52.0908C78.5732 52.0908 77.3248 52.0908 76.0615 52.0908C77.7558 51.4445 78.053 49.8876 78.6178 48.5363C80.6688 43.6157 82.7049 38.6805 84.7558 33.7452C84.8896 33.4514 85.0531 33.1724 85.3503 32.6289ZM90.7452 48.1838C88.7686 43.6451 86.8662 39.2827 84.8599 34.6706C83.2548 38.5483 81.7686 42.1322 80.2229 45.863C84.0276 45.393 86.9703 48.0369 90.7452 48.1838Z" fill="#F2CFD9"/>
<path d="M62.6115 51.7822C65.3759 51.7822 67.947 51.8556 70.5181 51.7528C71.9152 51.6941 72.8961 50.7981 73.6243 49.6377C73.7729 49.4027 74.0702 49.2705 74.308 49.0796C74.3377 49.3733 74.4566 49.6965 74.3971 49.9755C73.9661 52.2081 73.9661 52.2081 71.6922 52.2081C68.0362 52.2081 64.3801 52.2081 60.724 52.2081C60.3822 52.2081 60.0404 52.1641 59.6094 52.0025C61.2293 51.5325 61.1253 50.3134 61.1253 49.1383C61.1104 44.7318 61.1253 40.3254 61.1253 35.9189C61.1253 34.7732 61.1699 33.6275 59.758 33.0547C61.155 33.0547 62.5521 33.0547 63.9491 33.0547C62.2845 33.6863 62.5967 35.067 62.5967 36.2861C62.5818 41.0157 62.5967 45.76 62.5967 50.4896C62.6115 50.8862 62.6115 51.2828 62.6115 51.7822Z" fill="#F2CFD9"/>
</svg>
