<svg width="610" height="408" viewBox="0 0 610 408" fill="none" xmlns="http://www.w3.org/2000/svg">
<path d="M430.466 270.807H478.552C490.689 270.807 500.528 280.657 500.528 292.808C500.528 304.959 490.689 314.809 478.552 314.809H430.466C418.329 314.809 408.49 304.959 408.49 292.808C408.49 280.657 418.329 270.807 430.466 270.807Z" fill="#330099"/>
<path d="M428.105 296.397V287.337C428.105 286.631 428.663 286.073 429.369 286.073C430.075 286.073 430.633 286.631 430.633 287.337V295.363H435.31C435.95 295.363 436.459 295.872 436.459 296.512C436.459 297.152 435.95 297.661 435.31 297.661H429.369C428.663 297.661 428.105 297.103 428.105 296.397ZM443.19 297.858C439.645 297.858 437.101 295.215 437.101 291.949V291.916C437.101 288.65 439.678 285.975 443.223 285.975C446.768 285.975 449.312 288.617 449.312 291.883V291.916C449.312 295.182 446.735 297.858 443.19 297.858ZM443.223 295.527C445.258 295.527 446.669 293.919 446.669 291.949V291.916C446.669 289.947 445.225 288.305 443.19 288.305C441.155 288.305 439.743 289.914 439.743 291.883V291.916C439.743 293.886 441.188 295.527 443.223 295.527ZM457.085 297.858C453.507 297.858 451.045 295.346 451.045 291.949V291.916C451.045 288.65 453.589 285.975 457.069 285.975C458.808 285.975 459.957 286.369 460.991 287.091C461.237 287.271 461.516 287.616 461.516 288.109C461.516 288.798 460.958 289.356 460.269 289.356C459.908 289.356 459.678 289.225 459.498 289.093C458.808 288.601 458.07 288.305 456.987 288.305C455.148 288.305 453.688 289.93 453.688 291.883V291.916C453.688 294.017 455.132 295.56 457.167 295.56C458.086 295.56 458.907 295.33 459.547 294.871V293.229H457.84C457.233 293.229 456.74 292.753 456.74 292.146C456.74 291.539 457.233 291.046 457.84 291.046H460.729C461.434 291.046 461.992 291.604 461.992 292.31V295.1C461.992 295.839 461.713 296.348 461.106 296.709C460.171 297.283 458.808 297.858 457.085 297.858ZM464.539 296.495V287.337C464.539 286.631 465.097 286.073 465.803 286.073C466.509 286.073 467.067 286.631 467.067 287.337V296.495C467.067 297.201 466.509 297.759 465.803 297.759C465.097 297.759 464.539 297.201 464.539 296.495ZM469.938 296.512V287.37C469.938 286.664 470.496 286.106 471.202 286.106H471.464C472.072 286.106 472.433 286.402 472.777 286.845L477.652 293.246V287.321C477.652 286.631 478.21 286.073 478.899 286.073C479.589 286.073 480.147 286.631 480.147 287.321V296.463C480.147 297.168 479.589 297.726 478.883 297.726H478.801C478.194 297.726 477.832 297.431 477.488 296.988L472.433 290.357V296.512C472.433 297.201 471.875 297.759 471.185 297.759C470.496 297.759 469.938 297.201 469.938 296.512Z" fill="white"/>
<path d="M419.513 70.1792H298.02V125.166H419.513V70.1792Z" fill="#E3DDF1"/>
<path d="M403.927 85.1634H386.06C385.654 85.1634 385.325 84.8344 385.325 84.4286C385.325 84.0229 385.654 83.6938 386.06 83.6938H403.927C404.333 83.6938 404.662 84.0229 404.662 84.4286C404.662 84.8344 404.333 85.1634 403.927 85.1634Z" fill="white"/>
<path d="M370.611 85.1634H313.656C313.25 85.1634 312.921 84.8344 312.921 84.4286C312.921 84.0229 313.25 83.6938 313.656 83.6938H370.611C371.017 83.6938 371.346 84.0229 371.346 84.4286C371.346 84.8344 371.016 85.1634 370.611 85.1634Z" fill="white"/>
<path d="M403.927 98.4073H348.607C348.201 98.4073 347.872 98.0783 347.872 97.6725C347.872 97.2668 348.201 96.9377 348.607 96.9377H403.927C404.333 96.9377 404.662 97.2668 404.662 97.6725C404.662 98.0783 404.333 98.4073 403.927 98.4073Z" fill="white"/>
<path d="M335.966 98.4073H313.655C313.249 98.4073 312.92 98.0783 312.92 97.6725C312.92 97.2668 313.25 96.9377 313.655 96.9377H335.966C336.372 96.9377 336.701 97.2668 336.701 97.6725C336.701 98.0783 336.372 98.4073 335.966 98.4073Z" fill="white"/>
<path d="M403.927 111.651H378.101C377.695 111.651 377.366 111.322 377.366 110.916C377.366 110.511 377.695 110.182 378.101 110.182H403.927C404.333 110.182 404.662 110.511 404.662 110.916C404.662 111.322 404.333 111.651 403.927 111.651Z" fill="white"/>
<path d="M362.651 111.651H313.655C313.249 111.651 312.92 111.322 312.92 110.916C312.92 110.511 313.25 110.182 313.655 110.182H362.651C363.057 110.182 363.386 110.511 363.386 110.916C363.386 111.322 363.057 111.651 362.651 111.651Z" fill="white"/>
<path d="M458.662 144.356C484.182 144.356 504.87 123.644 504.87 98.0946C504.87 72.5451 484.182 51.8333 458.662 51.8333C433.142 51.8333 412.455 72.5451 412.455 98.0946C412.455 123.644 433.142 144.356 458.662 144.356Z" fill="#330099"/>
<mask id="mask0_1174_38052" style="mask-type:luminance" maskUnits="userSpaceOnUse" x="418" y="57" width="82" height="82">
<path d="M458.662 138.613C481.014 138.613 499.133 120.472 499.133 98.0946C499.133 75.7167 481.014 57.5759 458.662 57.5759C436.31 57.5759 418.19 75.7167 418.19 98.0946C418.19 120.472 436.31 138.613 458.662 138.613Z" fill="white"/>
</mask>
<g mask="url(#mask0_1174_38052)">
<path d="M481.553 117.635L458.662 112.357L435.772 117.635C429.615 119.055 424.71 123.702 422.954 129.778L417.987 156.051H499.338L494.37 129.778C492.614 123.702 487.709 119.055 481.553 117.635Z" fill="white"/>
<path d="M462.299 126.546H455.025C451.583 126.546 448.792 123.755 448.792 120.313V98.1682H468.532V120.313C468.532 123.755 465.741 126.546 462.299 126.546Z" fill="white"/>
</g>
<mask id="mask1_1174_38052" style="mask-type:luminance" maskUnits="userSpaceOnUse" x="418" y="57" width="82" height="82">
<path d="M458.662 138.613C481.014 138.613 499.133 120.472 499.133 98.0946C499.133 75.7167 481.014 57.5759 458.662 57.5759C436.31 57.5759 418.19 75.7167 418.19 98.0946C418.19 120.472 436.31 138.613 458.662 138.613Z" fill="white"/>
</mask>
<g mask="url(#mask1_1174_38052)">
<path d="M475.034 85.6521C474.323 85.4753 473.602 85.5429 472.933 85.7994C472.365 76.7434 466.195 70.6023 458.662 70.6023C451.129 70.6023 444.958 76.7436 444.391 85.7994C443.722 85.5429 443.001 85.4753 442.29 85.6521C440.175 86.1782 438.964 88.6282 439.584 91.1243C440.203 93.6203 442.42 95.2171 444.534 94.691C444.875 94.6062 445.189 94.4667 445.479 94.2899C447.658 100.978 452.74 106.098 458.662 106.098C464.584 106.098 469.666 100.978 471.845 94.2899C472.134 94.4667 472.449 94.606 472.79 94.6908C474.904 95.2169 477.121 93.6201 477.74 91.124C478.36 88.6282 477.148 86.1782 475.034 85.6521Z" fill="white"/>
</g>
<mask id="mask2_1174_38052" style="mask-type:luminance" maskUnits="userSpaceOnUse" x="418" y="57" width="82" height="82">
<path d="M458.662 138.613C481.014 138.613 499.133 120.472 499.133 98.0946C499.133 75.7167 481.014 57.5759 458.662 57.5759C436.31 57.5759 418.19 75.7167 418.19 98.0946C418.19 120.472 436.31 138.613 458.662 138.613Z" fill="white"/>
</mask>
<g mask="url(#mask2_1174_38052)">
<path d="M445.64 94.7636C447.818 101.452 452.74 106.098 458.662 106.098C464.584 106.098 469.519 101.413 471.698 94.7253L445.64 94.7636Z" fill="white"/>
<path d="M458.661 106.588C452.687 106.588 447.519 102.115 445.173 94.9154C445.09 94.6583 445.23 94.3818 445.488 94.2979C445.744 94.214 446.022 94.3548 446.105 94.612C448.314 101.395 453.126 105.608 458.661 105.608C464.113 105.608 469.048 101.277 471.232 94.5737C471.315 94.3168 471.592 94.1753 471.849 94.2598C472.107 94.3435 472.247 94.62 472.164 94.8774C469.846 101.991 464.546 106.588 458.661 106.588Z" fill="#330099"/>
</g>
<mask id="mask3_1174_38052" style="mask-type:luminance" maskUnits="userSpaceOnUse" x="418" y="57" width="82" height="82">
<path d="M458.662 138.613C481.014 138.613 499.133 120.472 499.133 98.0946C499.133 75.7167 481.014 57.5759 458.662 57.5759C436.31 57.5759 418.19 75.7167 418.19 98.0946C418.19 120.472 436.31 138.613 458.662 138.613Z" fill="white"/>
</mask>
<g mask="url(#mask3_1174_38052)">
<path d="M463.498 63.6569C451.265 61.6009 437.046 64.1516 443.058 83.4463L444.62 88.0739L447.117 89.7693C447.117 89.7693 446.415 77.0496 450.395 76.3877C454.159 75.7622 454.398 78.2627 458.916 78.1459C463.434 78.2627 463.675 75.7622 467.438 76.3877C471.418 77.0496 470.716 89.7693 470.716 89.7693L473.214 88.0739L474.775 83.4463C478.748 68.4545 472.379 62.5457 463.498 63.6569Z" fill="#330099"/>
<path d="M447.662 90.7303L444.209 88.3866L442.594 83.6028C440.302 76.2475 440.732 70.7018 443.869 67.1085C448.648 61.6337 458.194 62.2769 463.508 63.162C467.815 62.6408 471.426 63.7776 473.687 66.366C476.759 69.8831 477.299 75.8329 475.248 83.5717L473.625 88.3866L470.173 90.7303L470.227 89.7423C470.488 84.9939 469.94 77.3004 467.357 76.8711C465.605 76.5797 464.731 77.0032 463.626 77.5405C462.511 78.0824 461.237 78.6966 458.904 78.6359C456.575 78.6968 455.322 78.0824 454.208 77.5407C453.103 77.0035 452.229 76.5799 450.476 76.8713C447.892 77.3009 447.345 84.9941 447.607 89.7426L447.662 90.7303ZM445.031 87.7611L446.589 88.8182C446.498 85.6203 446.571 76.5269 450.315 75.9045C452.38 75.5617 453.475 76.0947 454.636 76.6593C455.699 77.1763 456.797 77.7109 458.904 77.6564C461.029 77.7104 462.135 77.1763 463.198 76.6593C464.358 76.0947 465.453 75.5615 467.518 75.9045C471.262 76.5269 471.337 85.6203 471.245 88.8182L472.802 87.7611L474.311 83.2896C476.265 75.9109 475.798 70.2711 472.949 67.0104C470.866 64.6267 467.621 63.635 463.559 64.1429L463.488 64.1518L463.417 64.1398C458.317 63.2826 449.094 62.6123 444.607 67.7526C441.71 71.0719 441.346 76.3029 443.527 83.3L445.031 87.7611Z" fill="white"/>
</g>
<path d="M570.793 356.463H338.393C338.122 356.463 337.903 356.243 337.903 355.973C337.903 355.702 338.122 355.483 338.393 355.483H570.303V0.979724H40.77V148.33C40.77 148.601 40.5509 148.82 40.2801 148.82C40.0094 148.82 39.7903 148.601 39.7903 148.33V0.489862C39.7903 0.219347 40.0094 0 40.2801 0H570.793C571.063 0 571.283 0.219347 571.283 0.489862V355.973C571.283 356.243 571.063 356.463 570.793 356.463Z" fill="#1F1F1F"/>
<path d="M555.368 37.5911H51.881C51.6102 37.5911 51.3911 37.3717 51.3911 37.1012C51.3911 36.8307 51.6102 36.6113 51.881 36.6113H555.368C555.638 36.6113 555.858 36.8307 555.858 37.1012C555.858 37.3717 555.638 37.5911 555.368 37.5911Z" fill="#1F1F1F"/>
<path d="M104.496 18.903C104.496 22.6242 107.507 25.6405 111.221 25.6405C114.935 25.6405 117.946 22.6242 117.946 18.903C117.946 15.1821 114.935 12.1655 111.221 12.1655C107.507 12.1657 104.496 15.1821 104.496 18.903Z" fill="#E3DDF1"/>
<path d="M82.3838 18.903C82.3838 22.6242 85.3946 25.6405 89.1088 25.6405C92.8228 25.6405 95.8337 22.6242 95.8337 18.903C95.8337 15.1821 92.8228 12.1655 89.1088 12.1655C85.3946 12.1657 82.3838 15.1821 82.3838 18.903Z" fill="#E3DDF1"/>
<path d="M66.996 25.6405C70.7102 25.6405 73.7211 22.624 73.7211 18.903C73.7211 15.182 70.7102 12.1655 66.996 12.1655C63.2819 12.1655 60.271 15.182 60.271 18.903C60.271 22.624 63.2819 25.6405 66.996 25.6405Z" fill="#E3DDF1"/>
<path d="M342.817 192.615L546.625 192.615V156.887L342.817 156.887V192.615Z" fill="white"/>
<path d="M546.625 193.105H342.817C342.546 193.105 342.327 192.886 342.327 192.615V156.887C342.327 156.617 342.546 156.397 342.817 156.397H546.625C546.896 156.397 547.115 156.617 547.115 156.887V192.615C547.115 192.886 546.896 193.105 546.625 193.105ZM343.307 192.125H546.135V157.377H343.307V192.125Z" fill="#1F1F1F"/>
<path d="M342.817 237.502L546.625 237.502V201.774L342.817 201.774V237.502Z" fill="white"/>
<path d="M546.625 237.992H342.817C342.546 237.992 342.327 237.773 342.327 237.502V201.774C342.327 201.504 342.546 201.284 342.817 201.284H546.625C546.896 201.284 547.115 201.504 547.115 201.774V237.502C547.115 237.773 546.896 237.992 546.625 237.992ZM343.307 237.012H546.135V202.264H343.307V237.012Z" fill="#1F1F1F"/>
<path d="M526 224.365C528.604 224.362 530.712 222.247 530.71 219.64C530.707 217.033 528.594 214.922 525.991 214.925C523.387 214.927 521.278 217.043 521.281 219.649C521.283 222.256 523.396 224.367 526 224.365Z" fill="#330099"/>
<path d="M511.961 224.366C514.565 224.363 516.673 222.248 516.671 219.641C516.668 217.034 514.555 214.923 511.952 214.926C509.348 214.928 507.239 217.044 507.242 219.65C507.245 222.257 509.357 224.368 511.961 224.366Z" fill="#330099"/>
<path d="M497.924 224.364C500.528 224.362 502.636 222.247 502.634 219.64C502.631 217.033 500.518 214.922 497.915 214.924C495.311 214.927 493.202 217.042 493.205 219.649C493.208 222.256 495.32 224.367 497.924 224.364Z" fill="#330099"/>
<path d="M483.885 224.365C486.489 224.363 488.598 222.247 488.595 219.641C488.592 217.034 486.479 214.923 483.876 214.925C481.272 214.928 479.163 217.043 479.166 219.65C479.169 222.257 481.282 224.368 483.885 224.365Z" fill="#330099"/>
<path d="M530.712 166.863H437.587V182.639H530.712V166.863Z" fill="#E3DDF1"/>
<path d="M305.536 326.278C305.266 326.278 305.046 326.059 305.046 325.788V219.238C305.046 218.968 305.266 218.748 305.536 218.748H334.797C335.068 218.748 335.287 218.968 335.287 219.238C335.287 219.509 335.068 219.728 334.797 219.728H306.026V325.788C306.026 326.059 305.807 326.278 305.536 326.278Z" fill="#1F1F1F"/>
<path d="M178.687 112.635L141.012 138.356L168.16 164.573L197.312 135.75L178.687 112.635Z" fill="white"/>
<path d="M168.16 165.063C168.038 165.063 167.915 165.017 167.82 164.925L140.672 138.708C140.566 138.606 140.512 138.461 140.525 138.314C140.537 138.168 140.615 138.034 140.737 137.951L178.412 112.231C178.624 112.086 178.909 112.13 179.069 112.328L197.693 135.443C197.851 135.638 197.836 135.922 197.656 136.098L168.505 164.921C168.41 165.015 168.285 165.063 168.16 165.063ZM141.786 138.421L168.157 163.888L196.652 135.713L178.59 113.295L141.786 138.421Z" fill="#1F1F1F"/>
<path d="M236.289 90.7432C236.901 91.2297 232.234 123.168 226.114 139.295C219.994 155.423 179.822 143.076 183.601 125.805C187.379 108.533 193.899 92.1004 193.899 92.1004L236.289 90.7432Z" fill="white"/>
<path d="M211.807 147.264C208.416 147.264 204.853 146.692 201.541 145.708C191.232 142.642 181.071 135.074 183.122 125.7C186.866 108.587 193.378 92.0842 193.443 91.9195C193.515 91.7382 193.688 91.6168 193.883 91.6105L236.273 90.2533C236.391 90.2508 236.502 90.2871 236.593 90.3592C236.843 90.5578 237.059 90.7291 236.304 96.3321C235.803 100.043 235.059 104.628 234.208 109.242C232.854 116.583 230.062 130.271 226.572 139.469C224.449 145.064 218.459 147.264 211.807 147.264ZM194.237 92.5796C193.342 94.8856 187.529 110.14 184.079 125.909C182.162 134.672 191.931 141.828 201.82 144.768C211.207 147.56 222.672 146.984 225.656 139.122C231.41 123.956 235.78 94.9214 235.856 91.247L194.237 92.5796Z" fill="#1F1F1F"/>
<path d="M199.794 103.062C199.794 103.062 207.601 104.277 215.059 96.5411C215.059 96.5411 221.8 101.893 235.697 95.2706C249.594 88.6481 250.22 73.1554 241.802 66.1393C233.384 59.1233 226.482 63.6368 219.84 62.361C213.198 61.085 199.279 53.0327 185.333 57.6172C171.387 62.2017 160.541 87.2363 167.988 105.14C169.877 109.685 169.729 115.664 173.123 116.273C173.908 116.414 177.843 112.599 178.664 112.592C188.28 112.507 199.794 103.062 199.794 103.062Z" fill="#1F1F1F"/>
<path d="M194.963 120.539C199.88 117.512 200.643 109.824 196.668 103.368C192.693 96.9114 185.485 94.1314 180.569 97.1583C175.653 100.185 174.889 107.873 178.864 114.329C182.839 120.785 190.047 123.565 194.963 120.539Z" fill="white"/>
<path d="M185.021 120.779C184.943 120.779 184.863 120.761 184.79 120.721C182.272 119.367 180.077 117.254 178.444 114.609C174.324 107.94 175.147 99.9296 180.277 96.7533C182.353 95.4683 184.85 95.1197 187.498 95.7442C191.231 96.6244 194.714 99.3016 197.053 103.089C198.339 105.171 199.194 107.48 199.526 109.766C199.566 110.033 199.38 110.282 199.112 110.321C198.842 110.36 198.596 110.174 198.557 109.907C198.244 107.753 197.436 105.573 196.219 103.604C194.016 100.036 190.755 97.519 187.273 96.6979C184.883 96.1344 182.642 96.4414 180.793 97.5866C176.121 100.479 175.441 107.884 179.277 114.094C180.82 116.593 182.887 118.586 185.254 119.858C185.492 119.986 185.582 120.283 185.453 120.521C185.365 120.686 185.196 120.779 185.021 120.779Z" fill="#1F1F1F"/>
<path d="M192.306 113.066C192.103 113.066 191.913 112.938 191.843 112.735C190.052 107.524 187.957 105.606 186.515 104.914C185.184 104.276 184.229 104.589 184.221 104.592C183.964 104.683 183.685 104.551 183.593 104.297C183.502 104.042 183.634 103.762 183.889 103.67C183.943 103.651 185.222 103.208 186.938 104.031C189.281 105.155 191.243 107.976 192.77 112.417C192.858 112.673 192.722 112.951 192.466 113.039C192.413 113.057 192.359 113.066 192.306 113.066Z" fill="#1F1F1F"/>
<path d="M227.751 329.694C228.486 330.192 242.233 324.754 249.557 318.294C256.881 311.835 257.791 311.215 257.791 311.215C257.791 311.215 261.587 320.888 267.219 321.25C272.851 321.611 273.037 315.619 273.017 313.632C273.017 313.632 276.656 320.402 283.598 318.469C290.539 316.537 286.2 305.023 286.2 305.023C286.2 305.023 287.253 295.83 278.04 278.178C274.543 271.479 268.886 262.725 268.886 262.725C268.886 262.725 273.909 261.301 276.716 267.386C279.523 273.471 284.849 275.865 288.554 273.873C292.259 271.88 292.824 268.335 287.092 257.779C280.982 246.526 276.364 240.83 270.491 239.635C266.156 238.753 243.83 245.992 232.441 249.843C228.058 251.324 223.944 253.495 220.243 256.273L198.678 272.461C198.678 272.461 194.685 307.311 227.751 329.694Z" fill="white"/>
<path d="M227.867 330.181C227.689 330.181 227.557 330.154 227.476 330.1C210.271 318.453 203.224 303.394 200.342 292.813C197.218 281.344 198.181 272.493 198.191 272.406C198.207 272.272 198.276 272.15 198.384 272.069L219.949 255.881C223.699 253.065 227.85 250.878 232.284 249.379C244.711 245.178 266.217 238.265 270.589 239.155C276.283 240.314 280.873 245.298 287.523 257.545C291.161 264.245 292.426 268.43 291.625 271.114C291.222 272.466 290.319 273.48 288.786 274.304C287.196 275.159 285.273 275.28 283.369 274.644C280.48 273.678 277.893 271.107 276.271 267.591C274.251 263.213 271.087 262.959 269.698 263.085C271.054 265.212 275.545 272.339 278.474 277.951C287.2 294.668 286.797 303.774 286.698 304.958C287.037 305.896 289.189 312.221 287.196 316.149C286.48 317.561 285.313 318.5 283.729 318.941C278.466 320.407 274.981 317.088 273.459 315.145C273.278 317.51 272.587 319.274 271.399 320.4C270.343 321.399 268.931 321.849 267.187 321.738C262.093 321.412 258.546 314.179 257.589 311.997C256.795 312.645 254.779 314.342 249.882 318.662C243.409 324.369 230.519 330.181 227.867 330.181ZM199.145 272.723C199.023 274.106 198.477 282.264 201.298 292.596C204.136 302.99 211.063 317.777 227.95 329.237C229.356 329.212 242.025 324.283 249.234 317.927C256.497 311.521 257.477 310.836 257.515 310.81C257.638 310.726 257.792 310.702 257.935 310.746C258.078 310.79 258.192 310.897 258.247 311.035C258.284 311.129 261.995 320.423 267.25 320.76C268.707 320.855 269.876 320.493 270.725 319.689C271.566 318.891 272.562 317.194 272.527 313.637C272.524 313.412 272.677 313.215 272.894 313.158C273.111 313.102 273.341 313.202 273.448 313.4C273.59 313.662 276.995 319.799 283.465 317.997C284.792 317.628 285.727 316.878 286.322 315.707C288.237 311.933 285.767 305.262 285.742 305.195C285.714 305.123 285.705 305.044 285.713 304.967C285.723 304.876 286.621 295.676 277.605 278.404C274.159 271.802 268.53 263.079 268.474 262.991C268.39 262.861 268.372 262.698 268.427 262.553C268.482 262.407 268.602 262.296 268.752 262.254C268.805 262.239 274.212 260.789 277.16 267.18C278.67 270.453 281.045 272.834 283.679 273.714C285.347 274.272 286.953 274.177 288.322 273.441C289.61 272.748 290.362 271.919 290.685 270.834C291.406 268.419 290.165 264.465 286.661 258.012C280.17 246.058 275.761 241.208 270.393 240.115C267.359 239.496 253.582 243.213 232.597 250.307C228.262 251.772 224.204 253.911 220.537 256.665L199.145 272.723Z" fill="#1F1F1F"/>
<path d="M273.017 314.122C272.829 314.122 272.649 314.013 272.568 313.829C272.495 313.662 265.158 297.028 260.901 293.502C256.784 290.093 243.915 295.574 243.786 295.63C243.536 295.737 243.248 295.622 243.142 295.374C243.035 295.125 243.15 294.837 243.398 294.73C243.949 294.492 256.953 288.958 261.526 292.747C265.96 296.42 273.161 312.742 273.466 313.435C273.574 313.683 273.462 313.972 273.214 314.081C273.15 314.109 273.083 314.122 273.017 314.122Z" fill="#1F1F1F"/>
<path d="M286.201 305.513C286.038 305.513 285.879 305.431 285.786 305.283C285.616 305.014 268.809 278.339 264.018 275.517C259.302 272.739 246.364 276.035 246.233 276.068C245.973 276.135 245.704 275.979 245.637 275.717C245.569 275.455 245.726 275.187 245.988 275.12C246.536 274.978 259.45 271.69 264.516 274.673C269.51 277.615 285.919 303.655 286.615 304.762C286.759 304.991 286.69 305.293 286.461 305.437C286.38 305.488 286.29 305.513 286.201 305.513Z" fill="#1F1F1F"/>
<path d="M268.886 263.215C268.715 263.215 268.55 263.126 268.459 262.966C268.351 262.777 265.809 258.46 258.787 258.792C251.561 259.135 247.915 260.876 247.879 260.894C247.637 261.013 247.342 260.911 247.224 260.669C247.105 260.426 247.205 260.133 247.448 260.014C247.601 259.939 251.287 258.167 258.74 257.813C266.396 257.449 269.197 262.28 269.313 262.485C269.446 262.721 269.362 263.02 269.126 263.152C269.05 263.195 268.968 263.215 268.886 263.215Z" fill="#1F1F1F"/>
<path d="M132.014 132.436L156.152 122.573C156.152 122.573 174.691 135.346 182.857 152.477C191.023 169.607 180.135 193.745 180.135 193.745L132.014 132.436Z" fill="white"/>
<path d="M180.135 194.235C179.986 194.235 179.843 194.167 179.75 194.048L131.629 132.738C131.534 132.617 131.501 132.459 131.54 132.31C131.58 132.162 131.686 132.04 131.829 131.982L155.967 122.12C156.119 122.057 156.295 122.076 156.43 122.17C156.617 122.298 175.171 135.215 183.299 152.266C191.469 169.403 180.692 193.703 180.582 193.947C180.511 194.103 180.364 194.211 180.194 194.232C180.174 194.234 180.155 194.235 180.135 194.235ZM132.8 132.644L180.008 192.79C181.734 188.585 189.588 167.735 182.415 152.688C174.869 136.859 158.179 124.618 156.089 123.128L132.8 132.644Z" fill="#1F1F1F"/>
<path d="M200.223 270.858L162.892 288.161C162.892 288.161 193.532 203.367 176.111 162.443C158.691 121.519 114.335 127.721 90.5355 151.008C66.736 174.295 27.3446 288.237 32.0839 353.153C37.0744 421.509 104.823 407.205 123.661 398.898C165.568 380.418 231.348 328.691 231.348 328.691C231.348 328.691 210.324 327.197 200.223 270.858Z" fill="#330099"/>
<path d="M37.3047 356.316C37.3047 356.316 0.321194 356.316 0.318302 356.316C-1.21624 356.293 3.26081 309.571 3.92353 305.35C8.17746 278.26 13.3826 251.107 23.3868 225.475C36.9372 190.757 59.7165 160.962 92.566 142.717C112.892 131.428 147.007 125.191 164.448 144.894C185.573 168.759 37.3047 356.316 37.3047 356.316Z" fill="#330099"/>
<path d="M32.6953 355.209C32.4442 355.209 32.2308 355.017 32.2079 354.763C32.1946 354.614 30.9101 339.588 33.6641 317.385C36.2056 296.898 42.8034 265.92 59.8031 234.684C59.9316 234.446 60.2284 234.358 60.4676 234.488C60.7049 234.617 60.7928 234.914 60.6633 235.152C43.7437 266.242 37.1731 297.08 34.6403 317.476C31.8956 339.583 33.1705 354.527 33.1841 354.676C33.2081 354.945 33.009 355.183 32.7396 355.207C32.7247 355.208 32.7098 355.209 32.6953 355.209Z" fill="#1F1F1F"/>
<path d="M119.167 308.722C118.982 308.722 118.805 308.617 118.722 308.439C118.608 308.193 118.715 307.902 118.961 307.788L161.476 288.063C161.724 287.949 162.013 288.056 162.127 288.301C162.241 288.546 162.134 288.838 161.889 288.952L119.373 308.677C119.307 308.708 119.236 308.722 119.167 308.722Z" fill="#1F1F1F"/>
<path d="M356.701 356.64H217.444C217.444 349.334 223.36 343.411 230.658 343.411H369.914C369.914 350.717 363.998 356.64 356.701 356.64Z" fill="#1F1F1F"/>
<path d="M354.168 348.892L418.07 210.298C424.695 213.36 427.587 221.22 424.529 227.853L368.723 348.892H354.168Z" fill="#1F1F1F"/>
<path d="M500.533 406.617H609.51V321.79H500.533V406.617Z" fill="white"/>
<path d="M609.51 407.107H500.533C500.263 407.107 500.043 406.887 500.043 406.617V321.79C500.043 321.519 500.263 321.3 500.533 321.3H609.51C609.781 321.3 610 321.519 610 321.79V406.617C610 406.887 609.781 407.107 609.51 407.107ZM501.023 406.127H609.02V322.28H501.023V406.127Z" fill="#1F1F1F"/>
<path d="M590.498 375.2C592.353 372.83 591.937 369.403 589.567 367.545C589.391 367.407 589.207 367.285 589.02 367.172C589.941 365.114 590.533 362.959 590.799 360.779C591.018 360.779 591.238 360.77 591.461 360.743C594.448 360.381 596.576 357.663 596.213 354.674C595.849 351.685 593.133 349.555 590.145 349.918C589.923 349.945 589.707 349.989 589.494 350.041C588.713 347.988 587.622 346.038 586.235 344.26C586.389 344.105 586.539 343.943 586.677 343.766C588.533 341.396 588.116 337.969 585.747 336.112C583.377 334.254 579.952 334.67 578.097 337.04C577.958 337.217 577.837 337.401 577.724 337.588C575.667 336.665 573.513 336.073 571.334 335.805C571.334 335.586 571.325 335.365 571.298 335.143C570.935 332.153 568.218 330.024 565.231 330.386C562.243 330.749 560.116 333.466 560.479 336.456C560.507 336.678 560.551 336.895 560.603 337.107C558.551 337.888 556.602 338.979 554.826 340.367C554.671 340.212 554.509 340.062 554.332 339.924C551.963 338.066 548.538 338.482 546.682 340.852C544.827 343.222 545.243 346.65 547.613 348.507C547.789 348.646 547.973 348.767 548.161 348.881C547.239 350.938 546.648 353.093 546.381 355.273C546.162 355.273 545.941 355.282 545.719 355.309C542.731 355.672 540.604 358.389 540.967 361.378C541.331 364.368 544.047 366.497 547.035 366.134C547.257 366.107 547.473 366.063 547.686 366.011C548.467 368.064 549.558 370.015 550.945 371.792C550.79 371.947 550.641 372.109 550.503 372.286C548.647 374.656 549.064 378.083 551.433 379.941C553.803 381.798 557.228 381.382 559.083 379.012C559.222 378.836 559.343 378.652 559.456 378.464C561.513 379.387 563.667 379.98 565.846 380.248C565.846 380.467 565.855 380.687 565.882 380.91C566.245 383.899 568.962 386.029 571.949 385.666C574.937 385.304 577.064 382.586 576.701 379.597C576.674 379.374 576.629 379.158 576.577 378.946C578.628 378.164 580.578 377.074 582.354 375.686C582.508 375.841 582.67 375.99 582.847 376.129C585.217 377.986 588.642 377.57 590.498 375.2ZM576.557 364.272C573.111 368.673 566.751 369.445 562.35 365.996C557.95 362.546 557.177 356.182 560.623 351.78C564.069 347.378 570.43 346.607 574.83 350.056C579.23 353.506 580.004 359.87 576.557 364.272Z" fill="white"/>
<path d="M571.289 386.195C568.33 386.196 565.762 383.979 565.396 380.968C565.384 380.875 565.376 380.779 565.369 380.678C563.398 380.399 561.476 379.862 559.642 379.08C559.585 379.162 559.527 379.239 559.469 379.314C558.491 380.563 557.085 381.357 555.51 381.548C553.935 381.739 552.38 381.305 551.131 380.326C548.554 378.305 548.099 374.563 550.117 371.984C550.175 371.91 550.237 371.835 550.304 371.76C549.105 370.165 548.124 368.425 547.382 366.577C547.283 366.595 547.188 366.609 547.095 366.621C543.835 367.015 540.877 364.689 540.482 361.437C540.29 359.862 540.723 358.306 541.702 357.057C542.68 355.807 544.086 355.014 545.661 354.823C545.754 354.811 545.85 354.803 545.95 354.796C546.229 352.824 546.765 350.9 547.546 349.065C547.463 349.008 547.386 348.951 547.311 348.893C544.733 346.871 544.278 343.129 546.298 340.55C547.276 339.301 548.681 338.508 550.257 338.316C551.83 338.125 553.386 338.559 554.635 339.538C554.71 339.596 554.784 339.658 554.859 339.724C556.453 338.526 558.191 337.545 560.037 336.803C560.019 336.704 560.005 336.608 559.993 336.514C559.802 334.939 560.235 333.383 561.213 332.134C562.191 330.885 563.597 330.091 565.172 329.9C568.424 329.506 571.389 331.831 571.785 335.084C571.796 335.178 571.805 335.274 571.811 335.374C573.782 335.653 575.704 336.19 577.538 336.972C577.595 336.89 577.652 336.813 577.711 336.738C578.689 335.489 580.095 334.695 581.67 334.504C583.244 334.313 584.8 334.747 586.049 335.726C588.627 337.747 589.082 341.489 587.063 344.068C587.005 344.143 586.943 344.217 586.877 344.292C588.075 345.886 589.056 347.626 589.799 349.475C589.897 349.457 589.992 349.443 590.087 349.431C593.334 349.038 596.304 351.362 596.699 354.615C596.891 356.19 596.457 357.746 595.479 358.996C594.501 360.245 593.095 361.038 591.52 361.23C591.427 361.241 591.331 361.25 591.231 361.256C590.952 363.228 590.416 365.152 589.635 366.986C589.717 367.044 589.795 367.101 589.87 367.16C592.447 369.181 592.902 372.923 590.883 375.502C589.905 376.751 588.499 377.545 586.924 377.736C585.346 377.927 583.794 377.493 582.545 376.514C582.471 376.456 582.397 376.394 582.322 376.328C580.729 377.526 578.99 378.507 577.144 379.25C577.162 379.348 577.176 379.444 577.187 379.537C577.379 381.113 576.946 382.669 575.968 383.918C574.99 385.168 573.584 385.961 572.008 386.152C571.767 386.181 571.527 386.195 571.289 386.195ZM559.457 377.974C559.524 377.974 559.593 377.988 559.657 378.017C561.646 378.909 563.748 379.496 565.906 379.761C566.151 379.791 566.336 380 566.336 380.247C566.336 380.473 566.346 380.67 566.368 380.85C566.698 383.567 569.178 385.509 571.891 385.179C573.205 385.02 574.379 384.357 575.196 383.314C576.013 382.271 576.375 380.971 576.214 379.655C576.192 379.475 576.156 379.281 576.101 379.063C576.042 378.822 576.171 378.575 576.403 378.487C578.435 377.713 580.336 376.641 582.052 375.299C582.247 375.147 582.526 375.164 582.7 375.339C582.86 375.498 583.006 375.631 583.149 375.743C584.192 376.56 585.49 376.923 586.806 376.763C588.121 376.604 589.295 375.941 590.112 374.898C591.798 372.744 591.418 369.619 589.264 367.931C589.121 367.818 588.963 367.71 588.765 367.591C588.554 367.463 588.471 367.197 588.572 366.972C589.463 364.983 590.049 362.879 590.313 360.72C590.343 360.474 590.552 360.29 590.799 360.29C591.028 360.29 591.22 360.28 591.402 360.258C592.717 360.098 593.891 359.436 594.707 358.392C595.524 357.349 595.886 356.049 595.726 354.734C595.396 352.017 592.919 350.075 590.204 350.404C590.023 350.426 589.834 350.462 589.611 350.517C589.37 350.576 589.124 350.447 589.036 350.216C588.262 348.182 587.189 346.279 585.849 344.562C585.696 344.367 585.713 344.089 585.888 343.914C586.047 343.755 586.179 343.608 586.291 343.465C587.977 341.311 587.597 338.186 585.444 336.498C584.401 335.68 583.102 335.318 581.787 335.477C580.473 335.637 579.299 336.299 578.482 337.342C578.369 337.486 578.261 337.645 578.142 337.842C578.014 338.053 577.748 338.137 577.522 338.035C575.534 337.143 573.432 336.556 571.274 336.291C571.029 336.261 570.844 336.052 570.844 335.805C570.844 335.58 570.833 335.382 570.811 335.201C570.481 332.485 568.001 330.544 565.289 330.873C563.975 331.032 562.801 331.695 561.984 332.738C561.167 333.781 560.805 335.081 560.966 336.397C560.987 336.577 561.024 336.771 561.078 336.989C561.138 337.23 561.008 337.477 560.777 337.565C558.745 338.339 556.844 339.411 555.127 340.752C554.933 340.904 554.654 340.888 554.479 340.713C554.32 340.553 554.173 340.421 554.03 340.309C552.987 339.492 551.687 339.129 550.374 339.289C549.059 339.448 547.885 340.111 547.068 341.154C545.382 343.308 545.762 346.433 547.915 348.121C548.059 348.235 548.218 348.343 548.414 348.461C548.625 348.589 548.709 348.855 548.608 349.08C547.717 351.069 547.131 353.172 546.867 355.332C546.837 355.578 546.628 355.763 546.381 355.763C546.38 355.763 546.378 355.763 546.376 355.763C546.153 355.763 545.957 355.773 545.778 355.795C544.463 355.954 543.289 356.617 542.472 357.66C541.655 358.703 541.294 360.003 541.454 361.318C541.784 364.035 544.262 365.976 546.976 365.648C547.156 365.626 547.35 365.589 547.569 365.535C547.808 365.476 548.056 365.606 548.144 365.837C548.917 367.87 549.99 369.772 551.331 371.49C551.484 371.685 551.467 371.963 551.292 372.138C551.129 372.301 551.001 372.444 550.889 372.588C549.202 374.741 549.582 377.867 551.736 379.555C552.779 380.372 554.079 380.735 555.392 380.575C556.707 380.416 557.881 379.753 558.698 378.71C558.81 378.566 558.918 378.408 559.038 378.21C559.129 378.059 559.29 377.974 559.457 377.974ZM568.572 368.643C566.213 368.643 563.935 367.86 562.048 366.381C557.443 362.77 556.63 356.085 560.237 351.478C561.985 349.246 564.496 347.829 567.309 347.488C570.125 347.146 572.901 347.921 575.132 349.67C579.738 353.281 580.551 359.966 576.943 364.574C575.196 366.805 572.685 368.223 569.871 368.564C569.436 368.617 569.003 368.643 568.572 368.643ZM568.606 348.389C568.215 348.389 567.822 348.413 567.428 348.46C564.874 348.77 562.595 350.057 561.009 352.082C557.735 356.264 558.472 362.333 562.653 365.61C564.678 367.198 567.197 367.901 569.753 367.592C572.306 367.282 574.586 365.996 576.172 363.97C579.446 359.788 578.708 353.719 574.527 350.442C572.815 349.099 570.748 348.389 568.606 348.389Z" fill="#1F1F1F"/>
<path d="M538.16 391.109C539.282 389.676 539.03 387.603 537.597 386.479C537.49 386.396 537.379 386.322 537.266 386.253C537.823 385.009 538.181 383.705 538.342 382.387C538.475 382.387 538.608 382.381 538.743 382.365C540.55 382.146 541.836 380.502 541.617 378.694C541.397 376.886 539.754 375.598 537.947 375.817C537.812 375.833 537.681 375.86 537.553 375.892C537.08 374.65 536.421 373.47 535.581 372.395C535.675 372.301 535.765 372.203 535.849 372.097C536.971 370.663 536.72 368.59 535.286 367.466C533.853 366.343 531.782 366.594 530.659 368.028C530.575 368.135 530.502 368.246 530.433 368.359C529.189 367.801 527.886 367.443 526.569 367.281C526.569 367.149 526.563 367.015 526.547 366.88C526.327 365.072 524.684 363.784 522.877 364.004C521.07 364.223 519.783 365.866 520.003 367.675C520.019 367.809 520.046 367.94 520.078 368.069C518.837 368.541 517.658 369.201 516.584 370.04C516.49 369.946 516.392 369.856 516.285 369.772C514.852 368.649 512.781 368.9 511.658 370.334C510.536 371.767 510.788 373.84 512.221 374.964C512.328 375.047 512.439 375.121 512.552 375.19C511.995 376.434 511.637 377.738 511.475 379.056C511.343 379.056 511.21 379.062 511.075 379.078C509.268 379.297 507.981 380.941 508.201 382.749C508.421 384.557 510.064 385.845 511.871 385.626C512.006 385.61 512.136 385.583 512.265 385.551C512.737 386.793 513.397 387.973 514.236 389.048C514.143 389.142 514.052 389.24 513.969 389.346C512.846 390.78 513.098 392.853 514.531 393.977C515.964 395.1 518.036 394.849 519.159 393.415C519.242 393.308 519.316 393.197 519.384 393.084C520.628 393.642 521.931 394 523.249 394.162C523.249 394.295 523.255 394.428 523.271 394.563C523.491 396.371 525.134 397.659 526.941 397.44C528.748 397.22 530.034 395.577 529.815 393.769C529.798 393.634 529.772 393.503 529.74 393.375C530.981 392.902 532.16 392.243 533.234 391.403C533.327 391.497 533.425 391.587 533.532 391.671C534.966 392.794 537.037 392.543 538.16 391.109ZM529.728 384.499C527.644 387.162 523.796 387.628 521.135 385.542C518.474 383.456 518.006 379.606 520.09 376.944C522.174 374.281 526.022 373.814 528.683 375.901C531.344 377.987 531.812 381.837 529.728 384.499Z" fill="white"/>
<path d="M526.541 397.954C524.655 397.954 523.018 396.541 522.784 394.622C522.784 394.612 522.782 394.602 522.781 394.592C521.676 394.423 520.597 394.122 519.563 393.694C519.557 393.701 519.551 393.709 519.546 393.716C518.921 394.513 518.025 395.019 517.021 395.141C516.016 395.263 515.026 394.986 514.229 394.362C512.586 393.073 512.296 390.688 513.584 389.044C513.59 389.037 513.596 389.029 513.602 389.021C512.939 388.118 512.388 387.142 511.959 386.109C511.95 386.11 511.94 386.111 511.931 386.112C509.861 386.364 507.968 384.882 507.715 382.808C507.594 381.804 507.87 380.812 508.493 380.016C509.116 379.219 510.012 378.714 511.017 378.592C511.026 378.591 511.036 378.589 511.046 378.588C511.215 377.482 511.516 376.402 511.942 375.368C511.935 375.362 511.926 375.356 511.919 375.35C510.276 374.061 509.986 371.676 511.273 370.032C511.896 369.236 512.793 368.73 513.796 368.608C514.801 368.486 515.792 368.763 516.588 369.387C516.596 369.393 516.603 369.399 516.611 369.405C517.513 368.742 518.489 368.192 519.521 367.763C519.52 367.753 519.518 367.744 519.517 367.734C519.395 366.73 519.672 365.738 520.295 364.941C520.918 364.145 521.814 363.639 522.818 363.517C524.886 363.265 526.782 364.749 527.034 366.822C527.035 366.832 527.036 366.841 527.037 366.851C528.142 367.02 529.221 367.322 530.256 367.75C530.262 367.742 530.268 367.734 530.274 367.726C530.898 366.93 531.794 366.424 532.798 366.302C533.804 366.181 534.793 366.457 535.589 367.081C537.232 368.369 537.522 370.755 536.235 372.399C536.229 372.407 536.223 372.415 536.217 372.422C536.88 373.325 537.43 374.302 537.859 375.335C537.869 375.333 537.879 375.332 537.888 375.331C539.962 375.079 541.851 376.561 542.104 378.635C542.225 379.639 541.949 380.631 541.326 381.427C540.702 382.224 539.806 382.729 538.802 382.851C538.792 382.852 538.783 382.854 538.773 382.855C538.604 383.96 538.303 385.04 537.876 386.075C537.884 386.081 537.892 386.088 537.9 386.094C539.543 387.382 539.833 389.767 538.546 391.411C537.923 392.208 537.026 392.713 536.022 392.835C535.016 392.957 534.027 392.68 533.231 392.056C533.223 392.05 533.215 392.044 533.208 392.038C532.306 392.701 531.33 393.252 530.298 393.68C530.299 393.69 530.3 393.7 530.302 393.71C530.423 394.714 530.147 395.705 529.524 396.502C528.9 397.298 528.004 397.804 527 397.926C526.846 397.945 526.693 397.954 526.541 397.954ZM519.385 392.593C519.452 392.593 519.52 392.607 519.585 392.637C520.77 393.168 522.022 393.518 523.309 393.676C523.554 393.706 523.739 393.915 523.739 394.162C523.739 394.275 523.743 394.389 523.757 394.504C523.944 396.041 525.347 397.139 526.882 396.953C527.626 396.863 528.29 396.488 528.752 395.898C529.214 395.308 529.419 394.572 529.328 393.828C529.314 393.712 529.291 393.601 529.264 393.492C529.205 393.251 529.334 393.005 529.565 392.917C530.777 392.456 531.91 391.816 532.932 391.017C533.127 390.865 533.405 390.882 533.58 391.056C533.66 391.136 533.743 391.214 533.834 391.285C534.425 391.748 535.16 391.953 535.903 391.863C536.647 391.773 537.312 391.398 537.774 390.808C538.728 389.589 538.513 387.82 537.294 386.865C537.203 386.794 537.107 386.731 537.011 386.673C536.8 386.545 536.717 386.279 536.818 386.054C537.349 384.868 537.698 383.615 537.856 382.328C537.885 382.082 538.095 381.897 538.342 381.897C538.455 381.897 538.568 381.893 538.684 381.879C539.428 381.789 540.092 381.414 540.554 380.824C541.016 380.233 541.221 379.498 541.13 378.754C540.943 377.216 539.537 376.118 538.005 376.304C537.891 376.318 537.779 376.341 537.67 376.368C537.428 376.427 537.182 376.298 537.095 376.067C536.633 374.855 535.994 373.721 535.195 372.697C535.042 372.502 535.059 372.224 535.235 372.049C535.315 371.969 535.392 371.886 535.463 371.795C536.417 370.576 536.202 368.808 534.983 367.853C534.393 367.39 533.662 367.186 532.915 367.275C532.171 367.366 531.507 367.74 531.045 368.331C530.973 368.422 530.911 368.517 530.853 368.613C530.725 368.825 530.459 368.909 530.233 368.807C529.048 368.275 527.795 367.926 526.509 367.768C526.264 367.738 526.079 367.529 526.079 367.281C526.079 367.168 526.074 367.055 526.06 366.94C525.874 365.403 524.473 364.303 522.936 364.49C522.192 364.581 521.528 364.955 521.066 365.546C520.604 366.136 520.399 366.871 520.49 367.616C520.504 367.731 520.527 367.843 520.553 367.952C520.613 368.192 520.483 368.439 520.252 368.527C519.041 368.988 517.909 369.627 516.886 370.426C516.69 370.579 516.413 370.562 516.238 370.387C516.158 370.307 516.075 370.23 515.984 370.159C515.394 369.696 514.659 369.491 513.914 369.581C513.171 369.671 512.506 370.046 512.044 370.636C511.09 371.855 511.305 373.624 512.524 374.579C512.615 374.65 512.71 374.713 512.807 374.771C513.018 374.899 513.101 375.165 513 375.39C512.469 376.574 512.12 377.828 511.962 379.116C511.932 379.362 511.723 379.547 511.476 379.547C511.363 379.547 511.249 379.551 511.134 379.565C510.39 379.655 509.726 380.03 509.264 380.62C508.802 381.21 508.597 381.946 508.688 382.69C508.875 384.228 510.276 385.326 511.813 385.14C511.927 385.126 512.039 385.103 512.149 385.076C512.393 385.017 512.636 385.147 512.723 385.377C513.185 386.589 513.824 387.723 514.623 388.747C514.776 388.942 514.759 389.22 514.584 389.395C514.504 389.475 514.427 389.558 514.355 389.649C513.401 390.867 513.616 392.636 514.835 393.591C515.425 394.054 516.159 394.259 516.903 394.168C517.647 394.078 518.312 393.703 518.774 393.113C518.844 393.023 518.907 392.927 518.965 392.83C519.056 392.679 519.218 392.593 519.385 392.593ZM524.898 387.337C523.427 387.337 522.008 386.849 520.833 385.927C517.963 383.678 517.457 379.512 519.704 376.642C520.793 375.251 522.358 374.368 524.111 374.155C525.863 373.943 527.595 374.426 528.985 375.515C531.855 377.765 532.361 381.931 530.113 384.801C529.025 386.192 527.46 387.075 525.707 387.288C525.436 387.321 525.166 387.337 524.898 387.337ZM524.918 375.086C524.69 375.086 524.46 375.1 524.229 375.128C522.736 375.309 521.403 376.061 520.476 377.246C518.561 379.692 518.992 383.24 521.437 385.157C522.622 386.085 524.096 386.497 525.589 386.315C527.082 386.134 528.415 385.382 529.342 384.198C531.257 381.752 530.825 378.204 528.38 376.287C527.379 375.502 526.17 375.086 524.918 375.086Z" fill="#1F1F1F"/>
</svg>
