<svg width="19" height="19" viewBox="0 0 19 19" fill="none" xmlns="http://www.w3.org/2000/svg">
<path d="M13.7707 7.95238H12.6397V8.51786H13.7707V9.64881H12.4022C11.9725 10.644 10.9773 11.3452 9.81234 11.3452H8.11591V14.1726H6.98496V9.64881H5.854V8.51786H6.98496V7.95238H5.854V6.82143H6.98496V5.125H9.81234C10.9773 5.125 11.9725 5.82625 12.4022 6.82143H13.7707V7.95238Z" fill="#9EA0AD"/>
<path d="M9.81264 6.25781H8.11621V6.82329H11.068C10.7626 6.47266 10.3102 6.25781 9.81264 6.25781Z" fill="#ECECEF"/>
<path d="M8.11621 7.95312H11.5091V8.5186H8.11621V7.95312Z" fill="#ECECEF"/>
<path d="M8.11621 10.2139H9.81264C10.3102 10.2139 10.7626 9.99906 11.068 9.64844H8.11621V10.2139Z" fill="#ECECEF"/>
<circle cx="9.5" cy="9.5" r="8" stroke="#9EA0AD" stroke-width="1.5"/>
</svg>
