<svg width="16" height="16" viewBox="0 0 16 16" fill="none" xmlns="http://www.w3.org/2000/svg">
<path d="M9.15327 2.34172L10.3266 4.68839C10.4866 5.01505 10.9133 5.32839 11.2733 5.38839L13.3999 5.74172C14.7599 5.96839 15.0799 6.95505 14.0999 7.92839L12.4466 9.58172C12.1666 9.86172 12.0133 10.4017 12.0999 10.7884L12.5733 12.8351C12.9466 14.4551 12.0866 15.0817 10.6533 14.2351L8.65994 13.0551C8.29994 12.8417 7.70661 12.8417 7.33994 13.0551L5.34661 14.2351C3.91994 15.0817 3.05327 14.4484 3.42661 12.8351L3.89994 10.7884C3.98661 10.4017 3.83327 9.86172 3.55327 9.58172L1.89994 7.92839C0.926606 6.95505 1.23994 5.96839 2.59994 5.74172L4.72661 5.38839C5.07994 5.32839 5.50661 5.01505 5.66661 4.68839L6.83994 2.34172C7.47994 1.06839 8.51994 1.06839 9.15327 2.34172Z" stroke="#FFB905" stroke-linecap="round" stroke-linejoin="round"/>
</svg>
