<svg width="20" height="20" viewBox="0 0 20 20" fill="none" xmlns="http://www.w3.org/2000/svg">
<path d="M17.1961 6.02693C16.5232 5.28276 15.399 4.91068 13.7682 4.91068H13.5782V4.87901C13.5782 3.54901 13.5782 1.90234 10.6015 1.90234H9.39816C6.42149 1.90234 6.42149 3.55693 6.42149 4.87901V4.91859H6.23149C4.59274 4.91859 3.47649 5.29068 2.80358 6.03484C2.01983 6.90568 2.04358 8.07734 2.12274 8.87693L2.13066 8.93234L2.18728 9.52688C2.20155 9.67665 2.28237 9.81209 2.4084 9.89426C2.60044 10.0195 2.88769 10.2035 3.06483 10.3019C3.17566 10.3732 3.29441 10.4365 3.41316 10.4998C4.76691 11.244 6.25524 11.7428 7.76733 11.9882C7.83858 12.7323 8.16316 13.6032 9.89691 13.6032C11.6307 13.6032 11.9711 12.7403 12.0265 11.9723C13.6415 11.7111 15.2011 11.149 16.6102 10.3257C16.6577 10.3019 16.6894 10.2782 16.729 10.2544C17.0301 10.0842 17.342 9.87619 17.6289 9.67052C17.7422 9.58933 17.8144 9.46318 17.8298 9.32467L17.8373 9.25693L17.8769 8.88484C17.8848 8.83734 17.8848 8.79776 17.8927 8.74234C17.9561 7.94276 17.9402 6.85026 17.1961 6.02693ZM10.8627 11.4498C10.8627 12.289 10.8627 12.4157 9.88899 12.4157C8.91524 12.4157 8.91524 12.2653 8.91524 11.4578V10.4603H10.8627V11.4498ZM7.55358 4.91068V4.87901C7.55358 3.53318 7.55358 3.03443 9.39816 3.03443H10.6015C12.4461 3.03443 12.4461 3.54109 12.4461 4.87901V4.91859H7.55358V4.91068Z" fill="#9EA0AD"/>
<path d="M16.8564 11.452C17.2105 11.2849 17.6177 11.5656 17.5823 11.9556L17.315 14.8997C17.1488 16.483 16.4996 18.098 13.0163 18.098H6.98379C3.50046 18.098 2.85129 16.483 2.68504 14.9076L2.43183 12.1223C2.39679 11.7368 2.79442 11.4564 3.14758 11.6147C4.05879 12.0234 5.55116 12.6632 6.52174 12.9268C6.68566 12.9713 6.819 13.0895 6.89418 13.2418C7.38512 14.2364 8.41746 14.7651 9.89712 14.7651C11.3622 14.7651 12.4071 14.216 12.8999 13.2183C12.9752 13.0659 13.1084 12.9478 13.2724 12.903C14.3049 12.6208 15.8996 11.9032 16.8564 11.452Z" fill="#9EA0AD"/>
</svg>
