<svg width="20" height="21" viewBox="0 0 20 21" fill="none" xmlns="http://www.w3.org/2000/svg">
<path fill-rule="evenodd" clip-rule="evenodd" d="M9.99999 3.41669C6.00166 3.41669 2.91666 6.21002 2.91666 9.47669C2.91666 11.3917 3.96082 13.1267 5.64166 14.2517C5.93666 14.4492 6.12582 14.7892 6.11249 15.1659L6.03249 17.3659C6.03124 17.4021 6.0395 17.4381 6.05644 17.4702C6.07338 17.5023 6.09842 17.5295 6.12907 17.5489C6.15972 17.5684 6.19493 17.5795 6.23119 17.5811C6.26746 17.5828 6.30353 17.5749 6.33582 17.5584L10.0875 15.635C10.2208 15.5667 10.3625 15.53 10.5042 15.5209C14.26 15.295 17.0833 12.6042 17.0833 9.47669C17.0833 6.21002 13.9983 3.41669 9.99999 3.41669ZM1.66666 9.47669C1.66666 5.35835 5.48416 2.16669 9.99999 2.16669C14.5158 2.16669 18.3333 5.35835 18.3333 9.47669C18.3333 13.4042 14.855 16.4934 10.62 16.7659L6.90666 18.6709C6.68038 18.787 6.42766 18.8419 6.17358 18.8302C5.9195 18.8185 5.6729 18.7406 5.45826 18.6041C5.24363 18.4676 5.06841 18.2774 4.95001 18.0523C4.83161 17.8272 4.77415 17.575 4.78332 17.3209L4.85832 15.2317C2.93749 13.9084 1.66666 11.8367 1.66666 9.47669Z" fill="#5C6268"/>
</svg>
