<svg width="120" height="120" viewBox="0 0 120 120" fill="none" xmlns="http://www.w3.org/2000/svg">
<rect x="0.5" y="0.5" width="119" height="119" rx="59.5" fill="#F9FAFC"/>
<rect x="0.5" y="0.5" width="119" height="119" rx="59.5" stroke="#F4F5F7"/>
<path d="M62.5248 70.6159C63.5415 70.6159 64.3657 69.7917 64.3657 68.775C64.3657 67.7583 63.5415 66.9341 62.5248 66.9341C61.5081 66.9341 60.6839 67.7583 60.6839 68.775C60.6839 69.7917 61.5081 70.6159 62.5248 70.6159Z" fill="#330099"/>
<path d="M68.6919 80.3726H45.7726C43.7424 80.3726 42.0908 78.7209 42.0908 76.6908V61.5953C42.0908 59.5652 43.7424 57.9135 45.7726 57.9135H72.2817C72.7009 57.9135 73.0334 57.9505 73.2985 58.0265C74.2759 58.3065 75.2952 57.7411 75.5753 56.7638C75.8553 55.7864 75.2899 54.7671 74.3126 54.487C73.7131 54.3153 73.0488 54.2318 72.2817 54.2318H70.0692V47.7395C70.0692 41.7776 65.1142 36.9272 59.0237 36.9272C52.9333 36.9272 47.9783 41.7776 47.9783 47.7395V54.2318H45.7726C41.7123 54.2318 38.409 57.5351 38.409 61.5954V76.6909C38.409 80.7512 41.7123 84.0545 45.7726 84.0545H68.6919C69.7087 84.0545 70.5328 83.2303 70.5328 82.2136C70.5328 81.1969 69.7087 80.3727 68.6919 80.3726ZM51.6601 47.7395C51.6601 43.8077 54.9634 40.6091 59.0237 40.6091C63.0841 40.6091 66.3874 43.8077 66.3874 47.7395V54.2318H51.6601V47.7395Z" fill="#330099"/>
<path d="M55.6214 70.6159C56.6381 70.6159 57.4623 69.7917 57.4623 68.775C57.4623 67.7583 56.6381 66.9341 55.6214 66.9341C54.6047 66.9341 53.7805 67.7583 53.7805 68.775C53.7805 69.7917 54.6047 70.6159 55.6214 70.6159Z" fill="#330099"/>
<path d="M82.6007 67.4137C82.5604 63.8433 79.6433 60.9512 76.0636 60.9512C72.4589 60.9512 69.526 63.8839 69.526 67.4887C69.526 68.5054 70.3502 69.3296 71.3669 69.3296C72.3837 69.3296 73.2078 68.5054 73.2078 67.4887C73.2078 65.9141 74.4889 64.633 76.0637 64.633C77.6384 64.633 78.9194 65.9141 78.9194 67.4887C78.9194 67.5055 78.9195 67.5221 78.92 67.5387C78.9111 68.0906 78.7423 68.6282 78.4341 69.0862C78.1259 69.5442 77.6916 69.903 77.1837 70.1192C75.385 70.8873 74.2227 72.6613 74.2227 74.6387V76.2307C74.2227 77.2475 75.0469 78.0716 76.0637 78.0716C77.0804 78.0716 77.9046 77.2475 77.9046 76.2307V74.6387C77.9046 74.1382 78.1892 73.6933 78.6294 73.5053C79.8091 73.0031 80.8149 72.1647 81.5213 71.0947C82.2278 70.0247 82.6037 68.7705 82.6023 67.4883C82.6023 67.4633 82.6017 67.4384 82.6007 67.4137Z" fill="#330099"/>
<path d="M76.0555 84.0546C77.0722 84.0546 77.8964 83.2304 77.8964 82.2137C77.8964 81.197 77.0722 80.3728 76.0555 80.3728C75.0388 80.3728 74.2146 81.197 74.2146 82.2137C74.2146 83.2304 75.0388 84.0546 76.0555 84.0546Z" fill="#330099"/>
<path d="M48.718 70.6159C49.7347 70.6159 50.5589 69.7917 50.5589 68.775C50.5589 67.7583 49.7347 66.9341 48.718 66.9341C47.7012 66.9341 46.877 67.7583 46.877 68.775C46.877 69.7917 47.7012 70.6159 48.718 70.6159Z" fill="#330099"/>
</svg>
