<svg width="20" height="21" viewBox="0 0 20 21" fill="none" xmlns="http://www.w3.org/2000/svg">
<path d="M17.54 4.75257C16.585 3.80969 15.3319 3.2926 13.9997 3.2926C12.412 3.2926 10.9094 4.05299 10.0091 5.30612C9.07233 4.04691 7.57587 3.2926 6.00035 3.2926C4.66815 3.2926 3.41502 3.80969 2.45996 4.75866C1.51709 5.70154 1 6.95466 1 8.29296C1 8.99858 1.13994 9.6738 1.41974 10.3065C1.64481 10.8235 1.99764 11.3102 2.48428 11.7968L7.77053 16.9857C8.38493 17.588 9.194 17.8921 9.99697 17.8921C10.806 17.8921 11.6151 17.588 12.2295 16.9857L17.5157 11.7908C18.0024 11.3102 18.3552 10.8235 18.5803 10.3065C18.8601 9.6738 19 8.99859 19 8.29296C19 6.95466 18.483 5.70154 17.54 4.75257ZM13.3305 6.00569C13.6104 6.06651 13.8841 6.16386 14.1396 6.29158C14.4316 6.44366 14.6992 6.63833 14.9304 6.86949C15.5387 7.48389 15.8733 8.28687 15.8733 9.14457H14.754C14.754 8.58494 14.535 8.06179 14.1396 7.66638C13.9875 7.52039 13.8111 7.39263 13.6225 7.29531C13.4583 7.20405 13.2818 7.14323 13.0994 7.10673L13.3305 6.00569Z" fill="#FF3B30"/>
</svg>
