<svg width="16" height="16" viewBox="0 0 16 16" fill="none" xmlns="http://www.w3.org/2000/svg">
<path d="M11.7042 14.9701V12.4659C11.7042 10.4286 10.0373 8.76172 8.00006 8.76172C5.96277 8.76172 4.2959 10.4286 4.2959 12.4659V14.9701H11.7042Z" fill="#E9EFFF"/>
<path d="M9.23965 8.97659C8.85162 8.83769 8.4343 8.76172 8.00005 8.76172C5.96277 8.76172 4.2959 10.4286 4.2959 12.4659V14.9701H6.77505V12.4659C6.77505 10.8628 7.80718 9.48938 9.23965 8.97659Z" fill="#DAE2FE"/>
<path d="M6.29605 13.293H3.97062C3.29015 13.293 2.7334 13.8497 2.7334 14.5302C2.7334 15.2107 3.29015 15.7674 3.97062 15.7674H6.29605L5.72949 14.5747L6.29605 13.293Z" fill="#4A66A0"/>
<path d="M12.0297 13.293H9.70425L8.77344 14.5302L9.70425 15.7674H12.0297C12.7102 15.7674 13.2669 15.2107 13.2669 14.5302C13.2669 13.8497 12.7102 13.293 12.0297 13.293Z" fill="#687DAA"/>
<path d="M13.1406 6.71209C13.2303 6.32653 13.2778 5.92481 13.2778 5.51197C13.2778 2.59722 10.9149 0.234375 8.00022 0.234375C5.0855 0.234375 2.72266 2.59722 2.72266 5.51194C2.72266 5.92478 2.77016 6.32653 2.85981 6.71206H13.1406V6.71209Z" fill="#546370"/>
<path d="M9.48209 0.445594C9.01191 0.308312 8.51475 0.234375 8.00022 0.234375C5.0855 0.234375 2.72266 2.59722 2.72266 5.51194C2.72266 5.92478 2.77016 6.32653 2.85981 6.71206H5.82353C5.73387 6.3265 5.68638 5.92478 5.68638 5.51194C5.68638 3.11175 7.28878 1.08606 9.48209 0.445594Z" fill="#3D4751"/>
<path d="M3.55117 7.95781C4.18026 7.95781 4.69023 7.44784 4.69023 6.81875C4.69023 6.18966 4.18026 5.67969 3.55117 5.67969C2.92208 5.67969 2.41211 6.18966 2.41211 6.81875C2.41211 7.44784 2.92208 7.95781 3.55117 7.95781Z" fill="#FFCBBE"/>
<path d="M12.4491 7.95781C13.0782 7.95781 13.5882 7.44784 13.5882 6.81875C13.5882 6.18966 13.0782 5.67969 12.4491 5.67969C11.82 5.67969 11.3101 6.18966 11.3101 6.81875C11.3101 7.44784 11.82 7.95781 12.4491 7.95781Z" fill="#FFCBBE"/>
<path d="M11.3926 4.62027C11.3919 4.61715 11.3913 4.61402 11.3906 4.6109C11.3308 4.32752 11.1021 4.11049 10.8147 4.07415C10.4827 4.03215 10.1316 4.10259 9.82361 4.30412C9.33543 4.62358 8.69783 4.81696 8.00021 4.81696C7.30268 4.81696 6.66517 4.62362 6.17702 4.30424C5.84471 4.08683 5.46342 4.02224 5.10986 4.08652C4.83871 4.13584 4.62886 4.34724 4.57114 4.61674C4.57089 4.6179 4.57064 4.61908 4.57039 4.62024C4.48252 5.02727 4.28583 5.3743 4.03167 5.61899C3.88021 5.76484 3.79277 5.96533 3.78127 6.17527C3.77767 6.24074 3.77558 6.30662 3.77505 6.37283C3.75542 8.73255 5.69727 10.6646 8.05683 10.6336C10.3643 10.6033 12.2256 8.72337 12.2256 6.40871C12.2256 6.34649 12.2242 6.28458 12.2215 6.22305C12.2118 6.00212 12.1171 5.79155 11.9548 5.64133C11.6893 5.39568 11.4832 5.03977 11.3926 4.62027Z" fill="#FFDDCF"/>
<path d="M5.76714 6.43809C5.76714 5.69141 5.95236 4.98813 6.27896 4.37116C6.24436 4.35059 6.2103 4.32956 6.17705 4.30781C5.84474 4.09041 5.46346 4.02581 5.10989 4.09009C4.83874 4.13941 4.62889 4.35081 4.57117 4.62031C4.57092 4.6215 4.57067 4.62266 4.57042 4.62381C4.48255 5.03084 4.28586 5.37788 4.03171 5.62256C3.88024 5.76841 3.7928 5.96891 3.7813 6.17884C3.77771 6.24431 3.77561 6.31019 3.77505 6.37641C3.75542 8.73612 5.69727 10.6682 8.05683 10.6372C8.25908 10.6346 8.45783 10.6174 8.65227 10.5872C6.96767 9.96206 5.76714 8.34037 5.76714 6.43809Z" fill="#FFCBBE"/>
<path d="M9.13647 14.5302C9.13647 13.8498 8.57975 13.293 7.89931 13.293H6.29581C5.61534 13.293 5.05859 13.8497 5.05859 14.5302C5.05859 15.2107 5.61534 15.7674 6.29581 15.7674H7.89925C8.57972 15.7674 9.13647 15.2107 9.13647 14.5302Z" fill="#FFCBBE"/>
<path d="M5.60019 8.07803C6.08915 8.07803 6.48553 7.76238 6.48553 7.373C6.48553 6.98362 6.08915 6.66797 5.60019 6.66797C5.11123 6.66797 4.71484 6.98362 4.71484 7.373C4.71484 7.76238 5.11123 8.07803 5.60019 8.07803Z" fill="#FFA1AC"/>
<path d="M10.399 8.07803C10.888 8.07803 11.2844 7.76238 11.2844 7.373C11.2844 6.98362 10.888 6.66797 10.399 6.66797C9.91005 6.66797 9.51367 6.98362 9.51367 7.373C9.51367 7.76238 9.91005 8.07803 10.399 8.07803Z" fill="#FFA1AC"/>
<path d="M6.53812 6.605C6.53812 6.37228 6.34947 6.18359 6.11672 6.18359C5.884 6.18359 5.69531 6.37225 5.69531 6.605" stroke="#232F55" stroke-width="0.361903" stroke-miterlimit="10" stroke-linecap="round" stroke-linejoin="round"/>
<path d="M9.46143 6.605C9.46143 6.37228 9.65008 6.18359 9.88283 6.18359C10.1156 6.18359 10.3042 6.37225 10.3042 6.605" stroke="#232F55" stroke-width="0.361903" stroke-miterlimit="10" stroke-linecap="round" stroke-linejoin="round"/>
<path d="M7.55273 7.09766C7.66142 7.22237 7.82133 7.30131 7.99973 7.30131C8.17814 7.30131 8.33805 7.22237 8.44673 7.09766" stroke="#232F55" stroke-width="0.361903" stroke-miterlimit="10" stroke-linecap="round" stroke-linejoin="round"/>
<path d="M10.9421 14.5302C10.9421 13.8497 10.3854 13.293 9.70491 13.293H8.10148C7.42101 13.293 6.86426 13.8497 6.86426 14.5302C6.86426 15.2107 7.42101 15.7674 8.10148 15.7674H9.70491C10.3854 15.7674 10.9421 15.2107 10.9421 14.5302Z" fill="#FFDDCF"/>
<path d="M7.59015 10.1406H7.55302C7.01487 10.1406 6.5589 10.5097 6.4253 11.0072C6.39393 11.124 6.28559 11.2036 6.16465 11.2036H4.38993C3.81615 11.2036 3.34668 11.673 3.34668 12.2468C3.34668 12.8206 3.81615 13.2901 4.38993 13.2901H6.7904H6.85624C7.14374 13.2901 7.40502 13.1722 7.59421 12.9824C7.84318 12.7603 8.00071 12.4376 8.00071 12.0798V10.5512C8.00071 10.3254 7.81596 10.1406 7.59015 10.1406Z" fill="#FFCBBE"/>
<path d="M8.41056 10.1406H8.44769C8.98584 10.1406 9.44181 10.5097 9.57541 11.0072C9.60678 11.124 9.71512 11.2036 9.83606 11.2036H11.6108C12.1846 11.2036 12.654 11.673 12.654 12.2468C12.654 12.8206 12.1846 13.2901 11.6108 13.2901H9.21031H9.14447C8.85697 13.2901 8.59569 13.1722 8.4065 12.9824C8.15753 12.7603 8 12.4376 8 12.0798V10.5512C8 10.3254 8.18475 10.1406 8.41056 10.1406Z" fill="#FFDDCF"/>
<path d="M11.4592 11.1434C11.259 10.6234 10.9445 10.1589 10.5469 9.78125" stroke="#232F55" stroke-width="0.361903" stroke-miterlimit="10" stroke-linecap="round" stroke-linejoin="round"/>
<path d="M5.42928 9.80469C5.04684 10.1744 4.74322 10.6252 4.54688 11.1286" stroke="#232F55" stroke-width="0.361903" stroke-miterlimit="10" stroke-linecap="round" stroke-linejoin="round"/>
<path d="M11.8109 1.86072C10.8503 0.858437 9.49816 0.234375 8.00022 0.234375C5.0855 0.234375 2.72266 2.59722 2.72266 5.51194C2.72266 5.67669 2.73022 5.83966 2.745 6.00053" stroke="#232F55" stroke-width="0.361903" stroke-miterlimit="10" stroke-linecap="round" stroke-linejoin="round"/>
<path d="M13.2574 5.97697C13.2708 5.82366 13.2777 5.66847 13.2777 5.51169C13.2777 4.46456 12.9727 3.48866 12.4468 2.66797" stroke="#232F55" stroke-width="0.361903" stroke-miterlimit="10" stroke-linecap="round" stroke-linejoin="round"/>
<path d="M3.97892 7.87478C3.84686 7.92834 3.70245 7.95781 3.55117 7.95781C2.92208 7.95781 2.41211 7.44784 2.41211 6.81875C2.41211 6.18966 2.92208 5.67969 3.55117 5.67969C3.6652 5.67969 3.77533 5.69644 3.8792 5.72762" stroke="#232F55" stroke-width="0.361903" stroke-miterlimit="10" stroke-linecap="round" stroke-linejoin="round"/>
<path d="M12.0968 5.73522C12.2077 5.69919 12.3261 5.67969 12.4491 5.67969C13.0782 5.67969 13.5881 6.18966 13.5881 6.81875C13.5881 7.44784 13.0782 7.95781 12.4491 7.95781C12.3088 7.95781 12.1744 7.93244 12.0503 7.88606" stroke="#232F55" stroke-width="0.361903" stroke-miterlimit="10" stroke-linecap="round" stroke-linejoin="round"/>
<path d="M4.91309 9.28516C5.4064 9.81422 6.03299 10.2176 6.73759 10.4402" stroke="#232F55" stroke-width="0.361903" stroke-miterlimit="10" stroke-linecap="round" stroke-linejoin="round"/>
<path d="M9.28333 10.4357C10.9896 9.89255 12.2256 8.29499 12.2256 6.40877C12.2256 6.34655 12.2242 6.28465 12.2215 6.22312C12.2118 6.00218 12.1171 5.79162 11.9548 5.6414C11.6893 5.39568 11.4832 5.0398 11.3926 4.62027C11.3919 4.61715 11.3913 4.61402 11.3906 4.6109C11.3308 4.32752 11.1021 4.11049 10.8147 4.07415C10.4827 4.03215 10.1316 4.10259 9.82361 4.30412C9.33542 4.62359 8.69783 4.81696 8.00021 4.81696C7.30267 4.81696 6.66517 4.62362 6.17702 4.30424C5.84471 4.08683 5.46342 4.02224 5.10986 4.08652C4.83871 4.13584 4.62886 4.34724 4.57114 4.61674C4.57089 4.6179 4.57064 4.61909 4.57039 4.62024C4.48252 5.02727 4.28583 5.3743 4.03167 5.61899C3.88021 5.76484 3.79277 5.96534 3.78127 6.17527C3.77767 6.24074 3.77558 6.30662 3.77505 6.37284C3.76877 7.1294 3.96408 7.84199 4.31017 8.46005" stroke="#232F55" stroke-width="0.361903" stroke-miterlimit="10" stroke-linecap="round" stroke-linejoin="round"/>
<path d="M7.89949 15.7674H3.97062C3.29015 15.7674 2.7334 15.2107 2.7334 14.5302C2.7334 13.8497 3.29015 13.293 3.97062 13.293H7.89949" stroke="#232F55" stroke-width="0.361903" stroke-miterlimit="10" stroke-linecap="round" stroke-linejoin="round"/>
<path d="M6.29581 15.7674C5.61534 15.7674 5.05859 15.2107 5.05859 14.5302C5.05859 13.8497 5.61534 13.293 6.29581 13.293" stroke="#232F55" stroke-width="0.361903" stroke-miterlimit="10" stroke-linecap="round" stroke-linejoin="round"/>
<path d="M8.10148 15.7674H12.0304C12.7108 15.7674 13.2676 15.2107 13.2676 14.5302C13.2676 13.8497 12.7108 13.293 12.0304 13.293H8.10148C7.42101 13.293 6.86426 13.8497 6.86426 14.5302C6.86426 15.2107 7.42101 15.7674 8.10148 15.7674Z" stroke="#232F55" stroke-width="0.361903" stroke-miterlimit="10" stroke-linecap="round" stroke-linejoin="round"/>
<path d="M9.70459 15.7674C10.3851 15.7674 10.9418 15.2107 10.9418 14.5302C10.9418 13.8497 10.3851 13.293 9.70459 13.293" stroke="#232F55" stroke-width="0.361903" stroke-miterlimit="10" stroke-linecap="round" stroke-linejoin="round"/>
<path d="M7.59015 10.1406H7.55302C7.01487 10.1406 6.5589 10.5097 6.4253 11.0072C6.39393 11.124 6.28559 11.2036 6.16465 11.2036H4.38993C3.81615 11.2036 3.34668 11.673 3.34668 12.2468C3.34668 12.8206 3.81615 13.2901 4.38993 13.2901H6.7904H6.85624C7.14374 13.2901 7.40502 13.1722 7.59421 12.9824C7.84318 12.7603 8.00071 12.4376 8.00071 12.0798V10.5512C8.00071 10.3254 7.81596 10.1406 7.59015 10.1406Z" stroke="#232F55" stroke-width="0.361903" stroke-miterlimit="10" stroke-linecap="round" stroke-linejoin="round"/>
<path d="M8.41056 10.1406H8.44769C8.98584 10.1406 9.44181 10.5097 9.57541 11.0072C9.60678 11.124 9.71512 11.2036 9.83606 11.2036H11.6108C12.1846 11.2036 12.654 11.673 12.654 12.2468C12.654 12.8206 12.1846 13.2901 11.6108 13.2901H9.21031H9.14447C8.85697 13.2901 8.59569 13.1722 8.4065 12.9824C8.15753 12.7603 8 12.4376 8 12.0798V10.5512C8 10.3254 8.18475 10.1406 8.41056 10.1406Z" stroke="#232F55" stroke-width="0.361903" stroke-miterlimit="10" stroke-linecap="round" stroke-linejoin="round"/>
</svg>
