<svg width="24" height="24" viewBox="0 0 24 24" fill="none" xmlns="http://www.w3.org/2000/svg">
<path d="M12.0021 2.25021C10.4081 2.24813 8.84078 2.6584 7.4523 3.44117C6.06382 4.22394 4.90144 5.35257 4.07812 6.7174C3.25479 8.08222 2.79853 9.63682 2.75366 11.2301C2.7088 12.8234 3.07685 14.4012 3.82207 15.8102L3.27207 19.8102C3.23052 20.0944 3.26299 20.3846 3.36635 20.6526C3.4697 20.9206 3.64044 21.1575 3.86207 21.3402C4.14488 21.5715 4.49683 21.7017 4.86207 21.7102C5.04255 21.7103 5.22174 21.6799 5.39207 21.6202L9.24207 20.2902C10.5184 20.7081 11.8704 20.8431 13.2041 20.6858C14.5378 20.5284 15.8213 20.0826 16.9654 19.3791C18.1094 18.6757 19.0865 17.7316 19.8289 16.6125C20.5712 15.4933 21.061 14.2259 21.2641 12.8984C21.4672 11.5708 21.3788 10.215 21.005 8.92506C20.6312 7.63514 19.9811 6.44207 19.0997 5.42878C18.2183 4.41549 17.1268 3.60627 15.9011 3.05736C14.6755 2.50845 13.3449 2.23302 12.0021 2.25021ZM12.0021 19.2502C11.1513 19.2489 10.3066 19.107 9.50207 18.8302C9.34423 18.7703 9.1699 18.7703 9.01207 18.8302L4.92207 20.2402C4.90574 20.251 4.88662 20.2567 4.86707 20.2567C4.84752 20.2567 4.8284 20.251 4.81207 20.2402C4.78713 20.2203 4.76829 20.1939 4.75768 20.1638C4.74707 20.1338 4.74512 20.1013 4.75207 20.0702L5.34207 15.7902C5.36205 15.628 5.33057 15.4636 5.25207 15.3202C4.41264 13.8384 4.08466 12.1214 4.31884 10.4345C4.55302 8.74768 5.33631 7.18493 6.54763 5.98784C7.75896 4.79075 9.33086 4.02599 11.0204 3.81177C12.7099 3.59755 14.4229 3.9458 15.8947 4.80269C17.3664 5.65958 18.515 6.97739 19.1627 8.55242C19.8105 10.1275 19.9214 11.872 19.4784 13.5164C19.0353 15.1608 18.063 16.6135 16.7116 17.6499C15.3602 18.6863 13.7051 19.2487 12.0021 19.2502ZM13.7521 15.7502C13.7495 15.9483 13.6696 16.1376 13.5295 16.2777C13.3894 16.4178 13.2002 16.4976 13.0021 16.5002H11.0021C10.8032 16.5002 10.6124 16.4212 10.4717 16.2805C10.3311 16.1399 10.2521 15.9491 10.2521 15.7502C10.2521 15.5513 10.3311 15.3605 10.4717 15.2199C10.6124 15.0792 10.8032 15.0002 11.0021 15.0002H11.2521V10.5002H11.0021C10.8032 10.5002 10.6124 10.4212 10.4717 10.2805C10.3311 10.1399 10.2521 9.94912 10.2521 9.75021C10.2521 9.5513 10.3311 9.36053 10.4717 9.21988C10.6124 9.07923 10.8032 9.00021 11.0021 9.00021H12.0021C12.2002 9.0028 12.3894 9.08265 12.5295 9.22274C12.6696 9.36284 12.7495 9.5521 12.7521 9.75021V15.0002H13.0021C13.2002 15.0028 13.3894 15.0826 13.5295 15.2227C13.6696 15.3628 13.7495 15.5521 13.7521 15.7502ZM10.7521 7.25021C10.7521 7.05243 10.8107 6.85909 10.9206 6.69464C11.0305 6.53019 11.1867 6.40202 11.3694 6.32633C11.5521 6.25064 11.7532 6.23084 11.9472 6.26942C12.1411 6.30801 12.3193 6.40325 12.4592 6.5431C12.599 6.68295 12.6943 6.86114 12.7329 7.05512C12.7714 7.2491 12.7516 7.45017 12.6759 7.63289C12.6003 7.81562 12.4721 7.9718 12.3076 8.08168C12.1432 8.19156 11.9498 8.25021 11.7521 8.25021C11.4869 8.25021 11.2325 8.14485 11.045 7.95731C10.8574 7.76978 10.7521 7.51542 10.7521 7.25021Z" fill="#7F8892"/>
</svg>
