<svg width="24" height="24" viewBox="0 0 24 24" fill="none" xmlns="http://www.w3.org/2000/svg">
<path d="M12.0021 2.25027C10.4081 2.24819 8.84078 2.65847 7.4523 3.44123C6.06382 4.224 4.90144 5.35263 4.07812 6.71746C3.25479 8.08228 2.79853 9.63688 2.75366 11.2302C2.7088 12.8235 3.07685 14.4013 3.82207 15.8103L3.27207 19.8103C3.23052 20.0945 3.26299 20.3847 3.36635 20.6527C3.4697 20.9207 3.64044 21.1575 3.86207 21.3403C4.14488 21.5715 4.49683 21.7018 4.86207 21.7103C5.04255 21.7104 5.22174 21.6799 5.39207 21.6203L9.24207 20.2903C10.5184 20.7082 11.8704 20.8431 13.2041 20.6858C14.5378 20.5285 15.8213 20.0826 16.9654 19.3792C18.1094 18.6758 19.0865 17.7317 19.8289 16.6125C20.5712 15.4933 21.061 14.226 21.2641 12.8984C21.4672 11.5709 21.3788 10.215 21.005 8.92512C20.6312 7.6352 19.9811 6.44214 19.0997 5.42884C18.2183 4.41555 17.1268 3.60633 15.9011 3.05742C14.6755 2.50851 13.3449 2.23308 12.0021 2.25027ZM12.0021 19.2503C11.1513 19.249 10.3066 19.1071 9.50207 18.8303C9.34423 18.7703 9.1699 18.7703 9.01207 18.8303L4.92207 20.2403C4.90574 20.251 4.88662 20.2568 4.86707 20.2568C4.84752 20.2568 4.8284 20.251 4.81207 20.2403C4.78713 20.2204 4.76829 20.1939 4.75768 20.1639C4.74707 20.1338 4.74512 20.1014 4.75207 20.0703L5.34207 15.7903C5.36205 15.628 5.33057 15.4636 5.25207 15.3203C4.41264 13.8385 4.08466 12.1215 4.31884 10.4346C4.55302 8.74774 5.33631 7.18499 6.54763 5.9879C7.75896 4.79081 9.33086 4.02605 11.0204 3.81183C12.7099 3.59761 14.4229 3.94586 15.8947 4.80275C17.3664 5.65964 18.515 6.97745 19.1627 8.55248C19.8105 10.1275 19.9214 11.8721 19.4784 13.5165C19.0353 15.1609 18.063 16.6135 16.7116 17.6499C15.3602 18.6863 13.7051 19.2488 12.0021 19.2503ZM13.7521 15.7503C13.7495 15.9484 13.6696 16.1376 13.5295 16.2777C13.3894 16.4178 13.2002 16.4977 13.0021 16.5003H11.0021C10.8032 16.5003 10.6124 16.4213 10.4717 16.2806C10.3311 16.1399 10.2521 15.9492 10.2521 15.7503C10.2521 15.5514 10.3311 15.3606 10.4717 15.2199C10.6124 15.0793 10.8032 15.0003 11.0021 15.0003H11.2521V10.5003H11.0021C10.8032 10.5003 10.6124 10.4213 10.4717 10.2806C10.3311 10.1399 10.2521 9.94918 10.2521 9.75027C10.2521 9.55136 10.3311 9.36059 10.4717 9.21994C10.6124 9.07929 10.8032 9.00027 11.0021 9.00027H12.0021C12.2002 9.00286 12.3894 9.08271 12.5295 9.2228C12.6696 9.3629 12.7495 9.55216 12.7521 9.75027V15.0003H13.0021C13.2002 15.0029 13.3894 15.0827 13.5295 15.2228C13.6696 15.3629 13.7495 15.5522 13.7521 15.7503ZM10.7521 7.25027C10.7521 7.05249 10.8107 6.85915 10.9206 6.6947C11.0305 6.53025 11.1867 6.40208 11.3694 6.32639C11.5521 6.2507 11.7532 6.2309 11.9472 6.26948C12.1411 6.30807 12.3193 6.40331 12.4592 6.54316C12.599 6.68302 12.6943 6.8612 12.7329 7.05518C12.7714 7.24916 12.7516 7.45023 12.6759 7.63295C12.6003 7.81568 12.4721 7.97186 12.3076 8.08174C12.1432 8.19162 11.9498 8.25027 11.7521 8.25027C11.4869 8.25027 11.2325 8.14491 11.045 7.95738C10.8574 7.76984 10.7521 7.51549 10.7521 7.25027Z" fill="white"/>
</svg>
