<svg width="120" height="120" viewBox="0 0 120 120" fill="none" xmlns="http://www.w3.org/2000/svg">
<rect x="0.5" y="0.5" width="119" height="119" rx="59.5" fill="#F9FAFC"/>
<rect x="0.5" y="0.5" width="119" height="119" rx="59.5" stroke="#F4F5F7"/>
<path d="M67.5076 70.7422C68.5863 70.7422 69.4607 69.8678 69.4607 68.7891C69.4607 67.7104 68.5863 66.8359 67.5076 66.8359C66.4289 66.8359 65.5544 67.7104 65.5544 68.7891C65.5544 69.8678 66.4289 70.7422 67.5076 70.7422Z" fill="#330099"/>
<path d="M57.7422 81.0938H42.3125C40.1586 81.0938 38.4063 79.3414 38.4063 77.1875V61.1719C38.4063 59.018 40.1586 57.2656 42.3125 57.2656H70.4375C72.5914 57.2656 74.3438 59.018 74.3438 61.1719V65.0781C74.3438 66.1568 75.2182 67.0313 76.2969 67.0313C77.3756 67.0313 78.25 66.1568 78.25 65.0781V61.1719C78.25 56.8641 74.7453 53.3594 70.4375 53.3594H68.0901V46.4713C68.0901 40.146 62.8331 35 56.3714 35C49.9097 35 44.6526 40.146 44.6526 46.4713V53.3594H42.3125C38.0047 53.3594 34.5 56.8641 34.5 61.1719V77.1875C34.5 81.4953 38.0047 85 42.3125 85H57.7422C58.8209 85 59.6953 84.1256 59.6953 83.0469C59.6953 81.9682 58.8209 81.0938 57.7422 81.0938ZM48.5589 46.4713C48.5589 42.2999 52.0636 38.9063 56.3714 38.9063C60.6792 38.9063 64.1839 42.2999 64.1839 46.4713V53.3594H48.5589V46.4713Z" fill="#330099"/>
<path d="M83.6837 66.8103C82.8066 66.1823 81.5864 66.3843 80.9587 67.2615L71.3316 80.7088C71.0687 81.0137 70.7392 81.0795 70.5627 81.0912C70.3816 81.1032 70.033 81.0803 69.7261 80.7923L63.5045 74.7209C62.7325 73.9674 61.4959 73.9827 60.7426 74.7546C59.9892 75.5266 60.0042 76.7631 60.7763 77.5165L67.0088 83.5987C67.0146 83.6043 67.0204 83.61 67.0263 83.6156C67.9606 84.5051 69.2078 84.9999 70.491 84.9999C70.6012 84.9999 70.7118 84.9963 70.8223 84.9889C72.2202 84.8957 73.5254 84.2159 74.403 83.1239C74.4257 83.0956 74.4476 83.0668 74.4687 83.0373L84.1349 69.5353C84.7627 68.6583 84.5608 67.4381 83.6837 66.8103Z" fill="#330099"/>
<path d="M60.0857 70.7422C61.1644 70.7422 62.0388 69.8678 62.0388 68.7891C62.0388 67.7104 61.1644 66.8359 60.0857 66.8359C59.007 66.8359 58.1326 67.7104 58.1326 68.7891C58.1326 69.8678 59.007 70.7422 60.0857 70.7422Z" fill="#330099"/>
<path d="M45.4373 70.7422C46.5159 70.7422 47.3904 69.8678 47.3904 68.7891C47.3904 67.7104 46.5159 66.8359 45.4373 66.8359C44.3586 66.8359 43.4841 67.7104 43.4841 68.7891C43.4841 69.8678 44.3586 70.7422 45.4373 70.7422Z" fill="#330099"/>
<path d="M52.7615 70.7422C53.8402 70.7422 54.7146 69.8678 54.7146 68.7891C54.7146 67.7104 53.8402 66.8359 52.7615 66.8359C51.6828 66.8359 50.8083 67.7104 50.8083 68.7891C50.8083 69.8678 51.6828 70.7422 52.7615 70.7422Z" fill="#330099"/>
</svg>
