<svg width="59" height="59" viewBox="0 0 59 59" fill="none" xmlns="http://www.w3.org/2000/svg">
<path d="M25.5731 5.43792L13.4078 10.0212C10.6042 11.0696 8.3125 14.3852 8.3125 17.3595V35.4734C8.3125 38.3501 10.2141 42.129 12.5301 43.8599L23.0133 51.6857C26.4508 54.2699 32.1068 54.2699 35.5443 51.6857L46.0275 43.8599C48.3435 42.129 50.2451 38.3501 50.2451 35.4734V17.3595C50.2451 14.3608 47.9535 11.0452 45.1498 9.99687L32.9845 5.43792C30.9122 4.68215 27.5966 4.68215 25.5731 5.43792Z" stroke="#201F57" stroke-width="3.51064" stroke-linecap="round" stroke-linejoin="round"/>
<path d="M29.2558 30.4783C31.9486 30.4783 34.1317 28.2953 34.1317 25.6024C34.1317 22.9096 31.9486 20.7266 29.2558 20.7266C26.5629 20.7266 24.3799 22.9096 24.3799 25.6024C24.3799 28.2953 26.5629 30.4783 29.2558 30.4783Z" stroke="#201F57" stroke-width="3.51064" stroke-miterlimit="10" stroke-linecap="round" stroke-linejoin="round"/>
<path d="M29.2549 30.4727V37.7865" stroke="#201F57" stroke-width="3.51064" stroke-miterlimit="10" stroke-linecap="round" stroke-linejoin="round"/>
</svg>
