<svg width="17" height="17" viewBox="0 0 17 17" fill="none" xmlns="http://www.w3.org/2000/svg">
<mask id="path-2-inside-1_3800_4225" fill="white">
<path d="M7.4879 1.28965C7.8746 0.632618 8.82482 0.632618 9.21152 1.28965L11.0162 4.35595C11.1582 4.59718 11.3948 4.76786 11.6685 4.82652L15.1567 5.57402C15.9093 5.7353 16.2052 6.65071 15.6894 7.22198L13.3225 9.84334C13.1329 10.0533 13.0411 10.3338 13.0699 10.6153L13.4288 14.1229C13.5067 14.8841 12.7357 15.4471 12.0343 15.1413L8.74944 13.7088C8.49454 13.5976 8.20487 13.5976 7.94998 13.7088L4.66515 15.1413C3.96376 15.4471 3.19273 14.8841 3.27061 14.1229L3.62948 10.6153C3.65827 10.3338 3.5665 10.0533 3.37689 9.84334L1.01006 7.22198C0.494264 6.65071 0.790159 5.7353 1.54275 5.57402L5.03092 4.82652C5.30462 4.76786 5.54121 4.59718 5.68319 4.35595L7.4879 1.28965Z"/>
</mask>
<path d="M5.03092 4.82652L4.92615 4.33762L5.03092 4.82652ZM5.68319 4.35595L5.25228 4.10233L5.68319 4.35595ZM1.01006 7.22198L0.638952 7.55705L1.01006 7.22198ZM3.37689 9.84334L3.748 9.50826L3.37689 9.84334ZM4.66515 15.1413L4.46528 14.683L4.66515 15.1413ZM3.27061 14.1229L2.7732 14.072L3.27061 14.1229ZM8.74944 13.7088L8.54957 14.1671L8.74944 13.7088ZM7.94998 13.7088L8.14984 14.1671L7.94998 13.7088ZM13.4288 14.1229L13.9262 14.072L13.4288 14.1229ZM13.3225 9.84334L12.9514 9.50826L13.3225 9.84334ZM13.0699 10.6153L12.5725 10.6662L13.0699 10.6153ZM15.6894 7.22198L16.0605 7.55705L15.6894 7.22198ZM7.4879 1.28965L7.05699 1.03603L7.4879 1.28965ZM8.78061 1.54326L10.5853 4.60956L11.4471 4.10233L9.64242 1.03603L8.78061 1.54326ZM11.5637 5.31542L15.0519 6.06292L15.2614 5.08512L11.7733 4.33762L11.5637 5.31542ZM15.3182 6.8869L12.9514 9.50826L13.6936 10.1784L16.0605 7.55705L15.3182 6.8869ZM12.5725 10.6662L12.9314 14.1738L13.9262 14.072L13.5673 10.5644L12.5725 10.6662ZM12.2341 14.683L8.94931 13.2505L8.54957 14.1671L11.8344 15.5996L12.2341 14.683ZM7.75011 13.2505L4.46528 14.683L4.86501 15.5996L8.14984 14.1671L7.75011 13.2505ZM3.76801 14.1738L4.12688 10.6662L3.13207 10.5644L2.7732 14.072L3.76801 14.1738ZM3.748 9.50826L1.38117 6.8869L0.638952 7.55705L3.00578 10.1784L3.748 9.50826ZM1.64751 6.06292L5.13569 5.31542L4.92615 4.33762L1.43798 5.08512L1.64751 6.06292ZM6.1141 4.60956L7.9188 1.54326L7.05699 1.03603L5.25228 4.10233L6.1141 4.60956ZM5.13569 5.31542C5.54624 5.22744 5.90112 4.97141 6.1141 4.60956L5.25228 4.10233C5.18129 4.22295 5.063 4.30829 4.92615 4.33762L5.13569 5.31542ZM1.38117 6.8869C1.12327 6.60126 1.27122 6.14356 1.64751 6.06292L1.43798 5.08512C0.309094 5.32704 -0.134745 6.70015 0.638952 7.55705L1.38117 6.8869ZM4.12688 10.6662C4.17007 10.244 4.03241 9.82325 3.748 9.50826L3.00578 10.1784C3.10058 10.2834 3.14647 10.4237 3.13207 10.5644L4.12688 10.6662ZM4.46528 14.683C4.11459 14.8359 3.72907 14.5544 3.76801 14.1738L2.7732 14.072C2.65638 15.2138 3.81293 16.0584 4.86501 15.5996L4.46528 14.683ZM8.94931 13.2505C8.56696 13.0837 8.13245 13.0837 7.75011 13.2505L8.14984 14.1671C8.27729 14.1115 8.42213 14.1115 8.54957 14.1671L8.94931 13.2505ZM12.9314 14.1738C12.9703 14.5544 12.5848 14.8359 12.2341 14.683L11.8344 15.5996C12.8865 16.0584 14.043 15.2138 13.9262 14.072L12.9314 14.1738ZM12.9514 9.50826C12.667 9.82325 12.5293 10.244 12.5725 10.6662L13.5673 10.5644C13.5529 10.4237 13.5988 10.2834 13.6936 10.1784L12.9514 9.50826ZM15.0519 6.06292C15.4282 6.14356 15.5761 6.60126 15.3182 6.8869L16.0605 7.55705C16.8342 6.70015 16.3903 5.32704 15.2614 5.08512L15.0519 6.06292ZM10.5853 4.60956C10.7983 4.97141 11.1532 5.22744 11.5637 5.31542L11.7733 4.33762C11.6364 4.30829 11.5181 4.22295 11.4471 4.10233L10.5853 4.60956ZM9.64242 1.03603C9.06237 0.0504885 7.63704 0.0504905 7.05699 1.03603L7.9188 1.54326C8.11215 1.21475 8.58726 1.21475 8.78061 1.54326L9.64242 1.03603Z" fill="#9DEAC0" mask="url(#path-2-inside-1_3800_4225)"/>
<path d="M4.66407 15.1401L7.74836 13.7951C8.11293 13.6361 8.34863 13.2762 8.34863 12.8785V1.6595C8.34863 1.15016 7.67608 0.966927 7.41773 1.40588L5.68211 4.35479C5.54013 4.59602 5.30354 4.7667 5.02984 4.82536L1.54167 5.57286C0.789085 5.73414 0.49319 6.64955 1.00899 7.22082L3.37582 9.84218C3.56542 10.0522 3.6572 10.3327 3.6284 10.6141L3.26953 14.1217C3.19165 14.8829 3.96268 15.446 4.66407 15.1401Z" fill="#9DEAC0"/>
</svg>
