<svg width="20" height="21" viewBox="0 0 20 21" fill="none" xmlns="http://www.w3.org/2000/svg">
<path d="M16.954 3.546C16.4526 3.04513 15.724 2.8716 15.0519 3.09754L3.77053 6.85781C2.99862 7.11472 2.5 7.8066 2.5 8.62073C2.5 9.43433 2.99862 10.1262 3.77053 10.3831L8.17086 11.8503L8.12294 11.8982L8.69778 12.473L10.1157 16.7295C10.3732 17.5014 11.0651 18 11.8793 18C12.6928 18 13.3847 17.5014 13.6416 16.7295L17.4025 5.44812C17.6267 4.77597 17.4549 4.04744 16.954 3.546ZM16.3083 5.08302L12.5475 16.3644C12.3982 16.8118 11.9981 16.8461 11.8793 16.8461C11.7598 16.8461 11.3598 16.8118 11.2105 16.3644L9.73034 11.9223L12.5509 9.10134L11.735 8.28549L9.05873 10.9622C8.98449 10.9194 8.90789 10.88 8.82553 10.8524L4.13563 9.28895C3.68824 9.14021 3.65387 8.73963 3.65387 8.62073C3.65387 8.50129 3.68824 8.10127 4.13563 7.95197L15.417 4.19167C15.4931 4.16634 15.5697 4.15395 15.6452 4.15395C15.8271 4.15395 16.0018 4.22605 16.1382 4.36185C16.3308 4.5551 16.3945 4.82442 16.3083 5.08302Z" fill="#5C6268"/>
</svg>
