<svg width="24px" height="24px" viewBox="0 0 24 24" fill="none" xmlns="http://www.w3.org/2000/svg" transform="rotate(0) scale(1, 1)">
<path d="M11.9989 8.92136C11.5107 8.92143 11.0334 8.77673 10.6275 8.50555C10.2215 8.23438 9.90512 7.84891 9.71826 7.39791C9.53139 6.9469 9.48246 6.45061 9.57766 5.97179C9.67286 5.49297 9.90791 5.05314 10.2531 4.70792C10.5983 4.36269 11.0381 4.12758 11.5169 4.03232C11.9957 3.93705 12.492 3.98591 12.943 4.17272C13.394 4.35952 13.7795 4.67588 14.0508 5.08179C14.322 5.4877 14.4668 5.96493 14.4668 6.45311C14.466 7.10743 14.2057 7.73473 13.7431 8.19744C13.2804 8.66014 12.6532 8.92048 11.9989 8.92136ZM11.9989 4.73483C11.659 4.73476 11.3268 4.83548 11.0442 5.02424C10.7616 5.213 10.5413 5.48133 10.4112 5.7953C10.2811 6.10926 10.247 6.45475 10.3132 6.78808C10.3795 7.12141 10.5431 7.42761 10.7834 7.66794C11.0237 7.90828 11.3299 8.07196 11.6632 8.13829C11.9965 8.20461 12.342 8.17061 12.656 8.04057C12.97 7.91053 13.2384 7.69029 13.4272 7.40772C13.616 7.12515 13.7168 6.79293 13.7168 6.45308C13.7162 5.9976 13.5351 5.56093 13.213 5.23883C12.891 4.91673 12.4543 4.73545 11.9989 4.73483Z" fill="#ffffff"/>
<path d="M11.9989 12.0799C11.3376 12.0795 10.8509 11.7045 10.8153 11.1677L10.7619 10.7231C10.4415 10.6298 10.1325 10.5012 9.84048 10.3397L9.65407 10.4686C9.24978 10.8055 8.65173 10.7217 8.19105 10.261C7.73036 9.80028 7.6473 9.2026 7.98341 8.79794L8.11233 8.61153C7.95072 8.31974 7.8222 8.01081 7.72916 7.69049L7.26416 7.63484C6.74745 7.60109 6.37245 7.11483 6.37207 6.45359C6.3717 5.79235 6.74707 5.30553 7.28392 5.26964L7.72923 5.21617C7.82224 4.89575 7.95072 4.58671 8.1123 4.29479L7.98341 4.10838C7.64722 3.70372 7.73073 3.10604 8.19105 2.64588C8.65065 2.1859 9.24855 2.10059 9.65407 2.43787L9.84048 2.56679C10.1323 2.40528 10.4412 2.2768 10.7615 2.18373L10.8172 1.71899C10.8509 1.20228 11.3372 0.827279 11.9984 0.826904H11.9988C12.6598 0.826904 13.1465 1.2019 13.1824 1.73875L13.2359 2.18369C13.5563 2.2767 13.8653 2.40518 14.1573 2.56675L14.3438 2.43757C14.7492 2.10175 15.3465 2.1856 15.8063 2.64558C16.2661 3.10555 16.35 3.70357 16.0143 4.10808L15.8854 4.29449C16.047 4.58629 16.1755 4.89522 16.2685 5.21553L16.7332 5.27118C17.2504 5.30538 17.6254 5.79205 17.6254 6.45344C17.6254 7.11483 17.25 7.60113 16.7132 7.63668L16.269 7.69015C16.1757 8.01053 16.0471 8.31955 15.8855 8.61153L16.0144 8.79794C16.3506 9.2026 16.2668 9.80062 15.8064 10.261C15.3461 10.7213 14.7492 10.8055 14.3439 10.4686L14.1575 10.3397C13.8657 10.5013 13.5568 10.6298 13.2365 10.7228L13.1808 11.1878C13.1466 11.7049 12.66 12.0799 11.9989 12.0799ZM9.8244 9.52008C9.89485 9.52007 9.96388 9.53986 10.0236 9.57719C10.3816 9.80207 10.7749 9.96489 11.1871 10.0588C11.2624 10.076 11.3306 10.1161 11.3823 10.1735C11.434 10.2309 11.4667 10.3029 11.476 10.3796L11.5621 11.0985C11.5727 11.2508 11.7917 11.3299 11.9986 11.3299H11.999C12.2059 11.3299 12.4252 11.2508 12.434 11.1182L12.5219 10.3795C12.5312 10.3028 12.5639 10.2308 12.6156 10.1734C12.6673 10.116 12.7355 10.0759 12.8108 10.0587C13.2229 9.96468 13.6163 9.80187 13.9743 9.57708C14.0364 9.53816 14.1086 9.51832 14.1819 9.52001C14.2553 9.5217 14.3265 9.54486 14.3868 9.5866L14.7856 9.86238C15.0835 10.0672 15.6111 9.53418 15.4085 9.23947L15.1327 8.84065C15.091 8.78036 15.0678 8.70915 15.0661 8.63583C15.0644 8.56251 15.0843 8.49031 15.1232 8.42815C15.348 8.07017 15.5108 7.67685 15.6048 7.26472C15.622 7.1894 15.6621 7.12124 15.7195 7.06953C15.7769 7.01782 15.8489 6.98508 15.9256 6.97578L16.6441 6.88972C16.7964 6.8791 16.8755 6.6601 16.8755 6.45318C16.8755 6.24625 16.7964 6.02654 16.6638 6.01777L15.9256 5.92987C15.8489 5.92057 15.7769 5.88783 15.7195 5.83612C15.6621 5.78441 15.622 5.71625 15.6048 5.64093C15.5107 5.22882 15.3479 4.83552 15.1231 4.47757C15.0841 4.41541 15.0643 4.34321 15.066 4.26989C15.0677 4.19657 15.0908 4.12536 15.1326 4.06507L15.4084 3.66625C15.613 3.36854 15.0799 2.84088 14.7855 3.04334L14.3866 3.31912C14.3264 3.36087 14.2551 3.38402 14.1818 3.38571C14.1085 3.38741 14.0363 3.36756 13.9741 3.32864C13.6162 3.10385 13.2228 2.94104 12.8107 2.84707C12.7354 2.82982 12.6672 2.78975 12.6155 2.73234C12.5638 2.67493 12.5311 2.60296 12.5218 2.52625L12.4357 1.80775C12.4251 1.65543 12.2057 1.5763 11.9988 1.5763C11.7919 1.5763 11.5726 1.65539 11.5638 1.78762L11.4759 2.52637C11.4666 2.60307 11.4338 2.67504 11.3821 2.73245C11.3304 2.78987 11.2622 2.82993 11.1869 2.84718C10.7748 2.94113 10.3815 3.10401 10.0236 3.32894C9.96144 3.36786 9.88924 3.38771 9.81592 3.38601C9.7426 3.38432 9.67139 3.36117 9.6111 3.31942L9.21228 3.04364C8.91435 2.83882 8.38672 3.37184 8.58937 3.66655L8.86515 4.06537C8.90689 4.12566 8.93005 4.19687 8.93174 4.27019C8.93343 4.34351 8.91359 4.41571 8.87467 4.47787C8.64988 4.83585 8.48707 5.22918 8.3931 5.6413C8.37585 5.71662 8.33578 5.78478 8.27837 5.83649C8.22096 5.8882 8.14899 5.92094 8.07228 5.93024L7.35341 6.0163C7.20108 6.02692 7.12196 6.24629 7.12196 6.45355C7.12196 6.66082 7.20105 6.87944 7.33327 6.88825L8.07228 6.97615C8.14899 6.98546 8.22096 7.01819 8.27837 7.0699C8.33578 7.12161 8.37585 7.18977 8.3931 7.26509C8.48707 7.67722 8.64988 8.07055 8.87467 8.42853C8.91359 8.49069 8.93343 8.56289 8.93174 8.63621C8.93005 8.70952 8.90689 8.78074 8.86515 8.84103L8.58937 9.23984C8.38451 9.53782 8.91731 10.0656 9.21228 9.86275L9.6111 9.58698C9.67372 9.54346 9.74814 9.52012 9.8244 9.52008Z" fill="#ffffff"/>
<path d="M21.3302 16.4996C21.3207 15.7032 21.0297 14.9358 20.5087 14.3334C19.9877 13.731 19.2704 13.3323 18.4836 13.2081L16.5561 12.9163L14.5519 11.5906C14.4691 11.5354 14.3678 11.5154 14.2703 11.5349C14.1728 11.5544 14.087 11.6118 14.0319 11.6946L11.998 14.5816L9.98778 11.7671L9.93798 11.6979C9.88115 11.6192 9.79607 11.5657 9.70061 11.5485C9.60515 11.5313 9.50674 11.5518 9.42603 11.6056L7.33728 12.9968C7.33312 12.9996 7.33076 13.0043 7.32675 13.0072L5.43041 13.3451C4.64741 13.4844 3.93909 13.8967 3.4311 14.5086C2.92311 15.1205 2.6483 15.8926 2.65541 16.6879L2.70018 21.0487C2.69968 21.2984 2.78454 21.5407 2.94068 21.7354C3.09681 21.9302 3.31484 22.0657 3.5586 22.1196C5.98763 22.6904 8.45101 23.1038 10.9333 23.3571C11.6585 23.4319 12.3897 23.4269 13.1138 23.3424C15.5941 23.1183 19.1325 22.2881 20.5369 21.942C20.7788 21.8841 20.9938 21.7455 21.1462 21.5489C21.2986 21.3523 21.3794 21.1096 21.3752 20.8608L21.3302 16.4996ZM15.982 13.444L14.4128 16.9025L12.4959 15.1812L14.4231 12.4432L15.982 13.444ZM9.56816 12.4698L11.5052 15.1817L9.5907 16.9021L8.02826 13.47L9.56816 12.4698ZM13.0135 16.6548L12.6414 17.7187H11.3676L10.9859 16.6582L12.0033 15.7473L13.0135 16.6548ZM3.45018 21.0447L3.40518 16.6797C3.40013 16.0616 3.61413 15.4616 4.00924 14.9863C4.40435 14.5109 4.95504 14.1909 5.56365 14.0829L7.33886 13.7667L9.12011 17.679C9.14508 17.7322 9.18207 17.7788 9.22815 17.8151C9.27423 17.8515 9.32814 17.8766 9.38562 17.8886C9.4431 17.9005 9.50257 17.8989 9.55932 17.8839C9.61607 17.8689 9.66855 17.8409 9.71261 17.8021L10.383 17.1991L10.7512 18.2225C10.7762 18.29 10.8202 18.3488 10.8778 18.3919L10.6148 22.5778C8.29749 22.3113 5.99706 21.9142 3.72453 21.3882C3.64675 21.3703 3.57732 21.3266 3.52751 21.2642C3.4777 21.2019 3.45045 21.1245 3.45018 21.0447ZM11.363 22.6309L11.6246 18.4704H12.3793L12.6377 22.6237C12.6175 22.6251 11.3855 22.6318 11.363 22.6309ZM20.3593 21.2134C18.0626 21.7971 15.734 22.2474 13.3853 22.5622L13.1262 18.3992C13.1885 18.3544 13.2356 18.2916 13.261 18.2192L13.6184 17.1976L14.2919 17.8025C14.3361 17.8412 14.3886 17.8691 14.4454 17.884C14.5021 17.8989 14.5616 17.9004 14.619 17.8884C14.6765 17.8764 14.7304 17.8512 14.7764 17.8149C14.8225 17.7785 14.8595 17.7319 14.8844 17.6787L16.6919 13.6951L18.3672 13.9489C18.9787 14.0457 19.5363 14.3557 19.9413 14.8239C20.3462 15.2922 20.5726 15.8886 20.5802 16.5077L20.6252 20.8687C20.6261 20.9477 20.6003 21.0247 20.5521 21.0873C20.5038 21.1498 20.4359 21.1942 20.3593 21.2134Z" fill="#ffffff"/>
</svg>