<svg width="20" height="20" viewBox="0 0 20 20" fill="none" xmlns="http://www.w3.org/2000/svg">
<path d="M11.3694 3.27859L12.7627 6.06526C12.9527 6.45318 13.4594 6.82526 13.8869 6.89651L16.4123 7.31609C18.0273 7.58526 18.4073 8.75693 17.2436 9.91276L15.2802 11.8761C14.9477 12.2086 14.7656 12.8498 14.8686 13.309L15.4306 15.7394C15.874 17.6632 14.8527 18.4073 13.1506 17.4019L10.7836 16.0007C10.3561 15.7473 9.65147 15.7473 9.21606 16.0007L6.84897 17.4019C5.15481 18.4073 4.12564 17.6553 4.56897 15.7394L5.13106 13.309C5.23397 12.8498 5.05189 12.2086 4.71939 11.8761L2.75606 9.91276C1.60022 8.75693 1.97231 7.58526 3.58731 7.31609L6.11272 6.89651C6.53231 6.82526 7.03897 6.45318 7.22897 6.06526L8.62231 3.27859C9.38231 1.76651 10.6173 1.76651 11.3694 3.27859Z" fill="#9EA0AD"/>
</svg>
