<svg width="20" height="20" viewBox="0 0 20 20" fill="none" xmlns="http://www.w3.org/2000/svg">
<g clip-path="url(#clip0_3674_23084)">
<path d="M12.6073 15.0452L11.3878 8.13825L10.2307 1.58208C10.1042 0.869996 9.42519 0.394932 8.71296 0.519972L1.606 1.77545C0.894062 1.90194 0.418853 2.58095 0.543893 3.29318L1.71088 9.89853L2.92052 16.7564C3.04701 17.4684 3.72602 17.9436 4.43825 17.8185L11.5452 16.5629C12.2571 16.4364 12.7324 15.7574 12.6073 15.0452ZM7.73933 1.60819L8.34248 1.50013C8.85511 1.41135 9.34352 1.75209 9.43737 2.26385L9.54225 2.87034C9.55748 2.95592 9.53804 3.04412 9.48829 3.11549C9.43853 3.18686 9.36238 3.23545 9.2768 3.25054C9.25837 3.25416 9.23966 3.25634 9.22095 3.25721C9.06168 3.25576 8.92561 3.14174 8.89645 2.98508L8.79158 2.37859C8.77867 2.30389 8.73617 2.23774 8.6735 2.1951C8.61098 2.15013 8.53294 2.13243 8.45722 2.14592L7.85073 2.25399C7.67521 2.27894 7.51173 2.15999 7.48156 1.9852C7.45139 1.81055 7.56555 1.64359 7.73933 1.60819ZM5.03154 3.95871L5.33311 3.9062C5.41899 3.8898 5.50776 3.90866 5.57942 3.95871C5.65094 4.00875 5.69938 4.08549 5.71346 4.1718C5.72869 4.25738 5.70925 4.34558 5.65949 4.41694C5.60974 4.48817 5.53358 4.53676 5.44785 4.55199L5.14628 4.6045C5.12684 4.60711 5.10711 4.60827 5.08739 4.6077C4.92057 4.6032 4.78393 4.47424 4.76957 4.30801C4.75535 4.14191 4.86806 3.99149 5.03154 3.95871ZM4.96597 5.24044C4.98135 5.32602 4.96191 5.41422 4.91201 5.48558C4.86226 5.55681 4.7861 5.6054 4.70052 5.62063C4.68094 5.62339 4.66121 5.6244 4.64148 5.62397C4.48264 5.6231 4.3473 5.50836 4.32032 5.35184L4.26781 5.05027C4.24736 4.93495 4.28986 4.8173 4.37951 4.74187C4.46915 4.66644 4.59231 4.64468 4.7024 4.68458C4.81265 4.72447 4.89315 4.8202 4.91361 4.93552L4.96597 5.24044ZM4.26781 3.15552C4.44609 3.12593 4.61464 3.24618 4.64482 3.42431L4.70052 3.72589C4.72982 3.90475 4.61015 4.07417 4.43173 4.10623C4.4133 4.10899 4.39459 4.11015 4.37602 4.10942C4.21762 4.11044 4.0817 3.99671 4.05472 3.84063L3.99902 3.53572C3.96957 3.35686 4.08939 3.18758 4.26781 3.15552ZM3.51714 4.22416L3.82205 4.1718C3.99742 4.1467 4.16105 4.26579 4.19122 4.44059C4.22139 4.61524 4.10709 4.7822 3.93345 4.81745L3.63188 4.86996C3.61346 4.87359 3.59489 4.87576 3.57618 4.87649C3.4008 4.88476 3.25009 4.75348 3.23428 4.57854C3.21846 4.40374 3.34321 4.24752 3.51714 4.22416ZM2.27806 4.15207C2.29329 4.23765 2.27385 4.32585 2.22409 4.39722C2.1742 4.46858 2.09819 4.51718 2.01246 4.53227C1.99302 4.53618 1.97329 4.53836 1.95342 4.53894C1.79458 4.53807 1.65924 4.42333 1.63226 4.26681L1.52405 3.66032C1.43542 3.14842 1.77659 2.66088 2.28778 2.56877L2.89426 2.46389C2.97999 2.44779 3.06862 2.46693 3.14013 2.51683C3.2115 2.56688 3.25995 2.64332 3.2746 2.72934C3.28983 2.81507 3.2704 2.90327 3.22064 2.97449C3.17074 3.04586 3.09473 3.09445 3.009 3.10968L2.40252 3.21456C2.32796 3.22733 2.26166 3.26997 2.21902 3.33249C2.17376 3.39501 2.15606 3.47305 2.16984 3.54892L2.27806 4.15207ZM5.41188 16.7302L4.80873 16.8384C4.29668 16.9242 3.81001 16.5847 3.71384 16.0745L3.60896 15.468C3.58836 15.3527 3.63101 15.2352 3.72065 15.1598C3.8103 15.0843 3.93345 15.0624 4.04355 15.1023C4.15365 15.1424 4.23416 15.238 4.25476 15.3533L4.35963 15.9598C4.38951 16.1153 4.53776 16.2185 4.69399 16.1926L5.30033 16.0844C5.47585 16.0594 5.63948 16.1785 5.66965 16.3532C5.69982 16.5278 5.58551 16.6948 5.41188 16.7302ZM7.46401 12.8423C7.40309 12.9304 7.30213 12.982 7.19507 12.98C7.12574 12.98 7.05814 12.9582 7.00171 12.9178C6.79849 12.7768 6.50678 12.3472 6.71653 11.6491C6.77209 11.4994 6.77557 11.3355 6.72639 11.1836C6.66735 11.1869 6.60512 11.1901 6.54275 11.1901C6.44513 11.1907 6.3475 11.183 6.25104 11.1672C6.18214 11.4338 6.03476 11.6736 5.8282 11.8556C5.52009 12.1474 5.58885 12.3506 5.59219 12.3604C5.62758 12.4386 5.63034 12.5277 5.59944 12.6078C5.56869 12.688 5.50704 12.7524 5.42827 12.7866C5.38693 12.8085 5.34066 12.8198 5.2938 12.8194C5.16369 12.8177 5.04634 12.7411 4.99223 12.6227C4.88402 12.3964 4.84804 11.8818 5.3791 11.3803C5.50486 11.2792 5.58987 11.136 5.61844 10.977C5.50863 10.9258 5.40332 10.8656 5.30367 10.7967C5.27263 10.7758 5.24303 10.7529 5.21518 10.728C5.02342 10.9252 4.77667 11.06 4.50716 11.1147C4.09403 11.213 4.05139 11.4229 4.04819 11.4327C4.03267 11.5998 3.89139 11.7267 3.7237 11.7245H3.69411C3.51235 11.7045 3.37977 11.5429 3.39587 11.3606C3.41879 11.1115 3.64493 10.646 4.35296 10.4788C4.51209 10.4541 4.65715 10.374 4.76275 10.2526C4.67093 10.1235 4.59492 9.98368 4.5366 9.8363C4.27144 9.90839 3.9909 9.90041 3.73023 9.81338C3.32697 9.69211 3.18278 9.85269 3.17625 9.85922C3.1162 9.94436 3.01814 9.99455 2.91399 9.99368C2.8461 9.99325 2.77996 9.9728 2.72382 9.93465C2.65941 9.8875 2.61401 9.81889 2.59602 9.74128C2.57571 9.64816 2.59472 9.55097 2.64839 9.47235C2.78938 9.26593 3.21875 8.97741 3.91706 9.18397C4.06633 9.24113 4.23097 9.24461 4.38255 9.19384C4.36993 9.0363 4.37544 8.8779 4.39894 8.72167C4.1332 8.65074 3.894 8.5038 3.7105 8.29883C3.42198 7.99073 3.21556 8.05629 3.20904 8.05949C3.13085 8.0959 3.04135 8.09938 2.96055 8.0692C2.8799 8.03903 2.81462 7.97767 2.77952 7.89891C2.7038 7.73238 2.77705 7.53597 2.94344 7.45967C3.16958 7.3548 3.68424 7.31868 4.18585 7.84654C4.28536 7.9726 4.42766 8.05774 4.58578 8.08574C4.6393 7.97666 4.70066 7.87149 4.76942 7.77111C4.78929 7.74123 4.8112 7.7128 4.83484 7.68582C4.64003 7.49144 4.50672 7.24412 4.45131 6.97445C4.35296 6.56481 4.14321 6.51883 4.13334 6.51883C4.04747 6.51027 3.9687 6.46762 3.91445 6.40046C3.8602 6.3333 3.83525 6.24728 3.84497 6.16155C3.86368 5.98081 4.02469 5.8491 4.20558 5.8665C4.45465 5.88623 4.92014 6.11238 5.09058 6.82374C5.11379 6.98156 5.19284 7.12575 5.31353 7.23019C5.4435 7.14055 5.58319 7.06584 5.72985 7.00724C5.65775 6.74207 5.66573 6.46153 5.75277 6.20086C5.87403 5.79441 5.71346 5.65022 5.70693 5.64355C5.63657 5.5938 5.58914 5.51779 5.57565 5.43264C5.56202 5.34749 5.58334 5.26045 5.63483 5.19126C5.7429 5.04504 5.94787 5.01154 6.09699 5.11583C6.30021 5.26002 6.58873 5.68953 6.38217 6.3877C6.32313 6.53667 6.31965 6.70189 6.37231 6.85319C6.53085 6.84057 6.69042 6.84608 6.84766 6.86958C6.91526 6.60238 7.06278 6.36217 7.2705 6.18113C7.57541 5.88942 7.50985 5.6862 7.50651 5.67633C7.47068 5.59815 7.46749 5.50894 7.49766 5.42829C7.52784 5.34778 7.58876 5.2825 7.66724 5.24696C7.83478 5.17356 8.03017 5.24798 8.10647 5.41407C8.21135 5.63702 8.25066 6.15502 7.7196 6.65649C7.59529 6.75759 7.51057 6.89917 7.4804 7.05641C7.62357 7.12415 7.75891 7.20771 7.88352 7.30562C8.07528 7.10834 8.32203 6.97344 8.59169 6.91875C9.00133 6.82374 9.04731 6.61399 9.05051 6.60412C9.05776 6.51796 9.09939 6.43847 9.16597 6.38349C9.2327 6.32866 9.31872 6.30298 9.40459 6.31227C9.58577 6.33257 9.71719 6.4946 9.69964 6.67622C9.67991 6.92209 9.45376 7.38758 8.74574 7.55802C8.58632 7.58181 8.44097 7.66203 8.33595 7.78417C8.4256 7.91414 8.5003 8.05383 8.5589 8.20048C8.82407 8.12839 9.10461 8.13637 9.36528 8.2234C9.77173 8.34148 9.91592 8.18409 9.92259 8.17756C9.97191 8.10677 10.0478 8.05891 10.1329 8.04484C10.2179 8.03062 10.3053 8.05122 10.3749 8.10213C10.4393 8.14928 10.4847 8.21789 10.5028 8.29564C10.523 8.38862 10.504 8.48581 10.4503 8.56443C10.3061 8.76766 9.87994 9.05937 9.17845 8.85281C9.02933 8.79507 8.86498 8.79043 8.71296 8.83975C8.72717 8.99931 8.72166 9.16004 8.69656 9.3183C8.96391 9.3856 9.20499 9.53182 9.3882 9.73795C9.67672 10.0461 9.88314 9.98048 9.88981 9.97729C9.96785 9.94045 10.0575 9.93668 10.1383 9.96699C10.2192 9.99717 10.2845 10.0588 10.3192 10.1379C10.3926 10.3045 10.3199 10.4994 10.1553 10.5771C10.0527 10.6205 9.94203 10.6417 9.83077 10.6395C9.47436 10.625 9.14044 10.4622 8.90965 10.1904C8.81116 10.063 8.66828 9.97758 8.50973 9.95104C8.4578 10.0594 8.39746 10.1634 8.32942 10.2625C8.30854 10.2935 8.28547 10.3231 8.26052 10.351C8.4578 10.5439 8.59256 10.7918 8.64739 11.0623C8.74574 11.4721 8.95549 11.5179 8.96202 11.5179C9.04789 11.5256 9.12724 11.5673 9.18207 11.6339C9.2369 11.7004 9.26272 11.7862 9.25373 11.872C9.23632 12.0429 9.09127 12.1723 8.91937 12.1703H8.89326C8.64405 12.1474 8.17856 11.9212 8.00812 11.213C7.98346 11.0541 7.90324 10.909 7.78198 10.8034C7.65273 10.8952 7.51304 10.9712 7.36566 11.0295C7.43776 11.2947 7.42978 11.5752 7.3426 11.8359C7.22467 12.2424 7.38205 12.3834 7.38858 12.3899C7.4598 12.4389 7.50796 12.5148 7.52218 12.6001C7.53639 12.6854 7.51536 12.7728 7.46401 12.8423ZM9.18816 13.2357C9.21761 13.4146 9.09794 13.584 8.91937 13.6159C8.90095 13.6188 8.88238 13.6198 8.86367 13.6193C8.70425 13.62 8.5679 13.5045 8.54251 13.3471L8.48667 13.0456C8.45722 12.8677 8.57515 12.6989 8.75227 12.6654C8.83785 12.65 8.92605 12.6694 8.99741 12.7193C9.06878 12.7691 9.11738 12.8452 9.13246 12.9308L9.18816 13.2357ZM8.4211 14.3273L8.11953 14.3798C8.10125 14.3834 8.08254 14.3856 8.06382 14.3863C7.88845 14.3946 7.73788 14.2632 7.72207 14.0884C7.70626 13.9136 7.83086 13.7573 8.00479 13.734L8.3097 13.6815C8.48522 13.6565 8.6487 13.7756 8.67887 13.9503C8.70904 14.1249 8.59488 14.292 8.4211 14.3273ZM9.18816 15.1271C9.16873 15.1309 9.149 15.1331 9.12927 15.1337C8.97029 15.1328 8.83495 15.0182 8.80797 14.8617L8.75546 14.5601C8.7395 14.4744 8.75865 14.3857 8.80855 14.3142C8.85845 14.2427 8.93504 14.1943 9.02106 14.1798C9.10664 14.1645 9.19484 14.184 9.26621 14.2337C9.33757 14.2835 9.38617 14.3596 9.40125 14.4454L9.45376 14.7469C9.46958 14.8327 9.45043 14.921 9.40053 14.9925C9.35063 15.064 9.27418 15.1125 9.18816 15.1271ZM9.57503 14.1175C9.40836 14.113 9.27157 13.9839 9.25736 13.8178C9.24314 13.6517 9.35585 13.5013 9.51933 13.4684L9.82091 13.4127C9.99918 13.3811 10.1695 13.4999 10.2011 13.6783C10.2329 13.8566 10.1139 14.0269 9.93565 14.0585L9.63407 14.1142C9.61449 14.1169 9.59476 14.118 9.57503 14.1175ZM10.8601 15.7696L10.2569 15.8746C10.2374 15.8784 10.2176 15.8806 10.1979 15.8811C10.0236 15.8868 9.8753 15.7551 9.86051 15.5814C9.84571 15.4077 9.96945 15.2527 10.1422 15.2288L10.7485 15.1239C10.8233 15.111 10.8895 15.0684 10.9322 15.0059C10.9773 14.9435 10.9951 14.8653 10.9814 14.7894L10.8732 14.1863C10.8427 14.0083 10.9611 13.8389 11.1388 13.8061C11.2243 13.7903 11.3128 13.8094 11.3843 13.8593C11.4559 13.9092 11.5043 13.9857 11.519 14.0715L11.6272 14.678C11.6702 14.9245 11.6137 15.178 11.4698 15.3827C11.3259 15.5875 11.1066 15.7267 10.8601 15.7696Z" fill="#9EA0AD"/>
<path d="M7.50363 10.1986C7.50363 10.1952 7.51015 10.192 7.51349 10.1887C7.52683 10.1758 7.54105 10.1637 7.55599 10.1526C7.73296 9.99388 7.87106 9.79645 7.95925 9.57568C7.95954 9.57321 7.9607 9.57089 7.96259 9.56915C7.9665 9.55232 7.97202 9.53579 7.97898 9.51997C8.0634 9.28368 8.08589 9.02982 8.04455 8.78236C8.04193 8.77394 8.04092 8.76495 8.04121 8.7561C7.9974 8.5066 7.89136 8.27204 7.73311 8.07433C7.71468 8.05518 7.69815 8.03429 7.68393 8.0121C7.52103 7.83295 7.31911 7.69384 7.09384 7.6055C7.07904 7.60159 7.06483 7.59608 7.05119 7.58911C6.81373 7.50556 6.55887 7.48293 6.31038 7.52355C6.29428 7.52732 6.27774 7.52964 6.26121 7.53022C6.25787 7.53022 6.25468 7.53341 6.25134 7.53341C6.01069 7.58026 5.78542 7.68616 5.59568 7.84151L5.58596 7.85138C5.4792 7.93696 5.38535 8.03734 5.30731 8.14976C5.23957 8.2455 5.18343 8.34892 5.14006 8.45786C5.13338 8.48368 5.12454 8.50878 5.1138 8.53329C5.03416 8.76596 5.0127 9.01474 5.05157 9.25771C5.05592 9.26569 5.05708 9.27512 5.05491 9.28397C5.09901 9.53985 5.20983 9.77948 5.37607 9.97894C5.53447 10.178 5.74248 10.3317 5.97922 10.4247C5.95644 10.4209 5.93352 10.4188 5.91046 10.4182C5.93367 10.4182 5.95688 10.4215 5.97922 10.428H5.98255C5.99604 10.4298 6.00924 10.433 6.02186 10.4378C6.03173 10.4411 6.04478 10.4476 6.05798 10.451C6.29109 10.5338 6.54146 10.5563 6.78574 10.5165C6.79226 10.5165 6.80213 10.5132 6.81185 10.5132C7.0612 10.4687 7.29547 10.3628 7.49376 10.2051C7.49652 10.2022 7.49985 10.1999 7.50363 10.1986Z" fill="#9EA0AD"/>
<path d="M12.8142 12.4334C13.7148 11.6933 13.9089 10.3914 13.2633 9.42082C12.9952 9.01175 12.5948 8.70742 12.1289 8.55859L12.8142 12.4334Z" fill="#9EA0AD"/>
<path d="M12.9384 13.149L13.0827 13.9718C14.5806 13.8607 15.7689 12.6651 15.871 11.1667C15.9731 9.66806 14.958 8.32236 13.4892 8.00904C13.1666 7.94841 12.836 7.94507 12.5122 7.99918C13.0428 8.20994 13.4958 8.57825 13.8105 9.05461C14.2443 9.71129 14.3964 10.5148 14.2324 11.2846C14.0685 12.0544 13.6023 12.7262 12.9384 13.149Z" fill="#9EA0AD"/>
<path d="M18.4525 3.66818L11.4866 2.36686C11.3373 2.33843 11.1843 2.33626 11.0341 2.36019L11.2211 3.41911C11.4068 3.32381 11.6188 3.29277 11.8242 3.33063L12.4209 3.44203C12.5991 3.47554 12.7165 3.64729 12.6831 3.82556C12.6496 4.00384 12.4779 4.12134 12.2996 4.08783L11.703 3.97642C11.6303 3.96221 11.5549 3.97787 11.4939 4.0198C11.4329 4.06172 11.3912 4.12641 11.3783 4.19923L11.3686 4.25174L11.9356 7.46752C12.4774 7.29752 13.0527 7.26386 13.6108 7.36917C15.3889 7.74313 16.6272 9.35994 16.5248 11.1742C16.4224 12.9883 15.01 14.4555 13.201 14.627L13.2535 14.9318C13.295 15.165 13.294 15.4038 13.2502 15.6366L13.5255 15.689C13.6895 15.7222 13.8023 15.8735 13.787 16.04C13.7719 16.2065 13.6338 16.335 13.4666 16.3381C13.4469 16.3387 13.4271 16.3375 13.4075 16.3348L13.1092 16.279C13.0797 16.2727 13.0511 16.2628 13.024 16.2496C12.7345 16.7577 12.2332 17.1099 11.657 17.21L7.91016 17.8722C8.08452 18.0292 8.29906 18.1346 8.5297 18.1771L15.499 19.4784C15.8407 19.5431 16.1943 19.4689 16.481 19.2719C16.7678 19.0749 16.9642 18.7717 17.0266 18.4295L19.5016 5.19911C19.5657 4.85692 19.4913 4.50327 19.2944 4.2162C19.0977 3.92899 18.7948 3.73186 18.4525 3.66818ZM15.0171 15.9676C15.1031 15.983 15.1794 16.0323 15.2287 16.1044C15.2781 16.1765 15.2962 16.2654 15.2794 16.3511C15.2509 16.5065 15.1159 16.6195 14.9581 16.6199C14.9382 16.6195 14.9185 16.6173 14.899 16.6134L14.6008 16.5577C14.4855 16.5367 14.39 16.4556 14.3506 16.3452C14.3113 16.2347 14.3337 16.1117 14.4096 16.0223C14.4856 15.9329 14.6034 15.8909 14.7187 15.9119L15.0171 15.9676ZM13.909 15.1678C13.9229 15.0458 14.0039 14.9416 14.1189 14.8982C14.2338 14.8547 14.3633 14.8792 14.4546 14.9616C14.5457 15.0439 14.5832 15.1704 14.5516 15.289L14.4959 15.5874C14.4675 15.7426 14.3324 15.8556 14.1746 15.8562C14.1547 15.8556 14.135 15.8534 14.1156 15.8497C14.0298 15.8337 13.954 15.7844 13.9048 15.7123C13.8556 15.6404 13.8371 15.5517 13.8533 15.4661L13.909 15.1678ZM14.2173 17.0789C14.1874 17.2329 14.0528 17.3442 13.896 17.3445C13.8762 17.3451 13.8565 17.3439 13.8369 17.3412C13.7512 17.3253 13.6753 17.2759 13.6262 17.2039C13.577 17.132 13.5584 17.0434 13.5747 16.9576L13.6305 16.6594C13.6443 16.5373 13.7254 16.4332 13.8403 16.3897C13.9551 16.3464 14.0847 16.3707 14.1759 16.4531C14.267 16.5355 14.3046 16.6619 14.273 16.7807L14.2173 17.0789ZM16.2497 17.7673C16.1677 18.2085 15.7837 18.529 15.3351 18.5311C15.2768 18.5308 15.2186 18.5253 15.1613 18.5147L14.5647 18.4033C14.4494 18.3822 14.354 18.3012 14.3146 18.1908C14.2751 18.0804 14.2976 17.9572 14.3736 17.8679C14.4495 17.7785 14.5673 17.7364 14.6828 17.7575L15.2794 17.869C15.4312 17.897 15.5773 17.7977 15.6072 17.6461L15.7186 17.0494C15.7325 16.9273 15.8135 16.8233 15.9284 16.7798C16.0432 16.7364 16.1729 16.7608 16.264 16.8432C16.3553 16.9256 16.3927 17.0521 16.3611 17.1707L16.2497 17.7673ZM15.7481 5.32372C15.7816 5.1453 15.9533 5.02795 16.1316 5.06145C16.31 5.09496 16.4274 5.26657 16.3938 5.44499L16.3381 5.74322C16.3084 5.89728 16.1737 6.00853 16.0168 6.00882C15.9961 6.0094 15.9752 6.00824 15.9546 6.00549C15.7769 5.97111 15.66 5.80009 15.6924 5.62196L15.7481 5.32372ZM15.2466 6.49071L14.9482 6.435C14.7699 6.4015 14.6524 6.22975 14.6859 6.05147C14.7194 5.87305 14.8912 5.7557 15.0695 5.78921L15.3679 5.84491C15.5318 5.87798 15.6445 6.02928 15.6294 6.1958C15.6142 6.36248 15.4761 6.49085 15.3088 6.4939C15.2881 6.49448 15.2672 6.49346 15.2466 6.49071ZM16.0595 7.23485C16.0298 7.38876 15.8951 7.50002 15.7383 7.50031C15.7174 7.50089 15.6966 7.49987 15.676 7.49712C15.4983 7.46259 15.3813 7.29157 15.4137 7.11344L15.4694 6.8152C15.5029 6.63692 15.6747 6.51943 15.8529 6.55294C16.0314 6.58644 16.1487 6.75819 16.1152 6.93647L16.0595 7.23485ZM16.8003 6.77255C16.7796 6.77313 16.7587 6.77197 16.7381 6.76936L16.4398 6.71351C16.2614 6.68015 16.1441 6.5084 16.1776 6.32998C16.2111 6.15171 16.3827 6.03435 16.5611 6.06786L16.8593 6.12357C17.037 6.15794 17.154 6.32897 17.1216 6.5071C17.0919 6.661 16.9571 6.77226 16.8003 6.77255ZM18.5378 5.53681L18.4263 6.13343C18.398 6.28864 18.2629 6.40164 18.1051 6.40222C18.0842 6.40179 18.0633 6.39961 18.0427 6.39555C17.865 6.36117 17.7481 6.19015 17.7805 6.01202L17.892 5.41539C17.9058 5.34287 17.8901 5.26758 17.8482 5.20666C17.8063 5.14573 17.7419 5.1041 17.6691 5.0909L17.0724 4.9795C16.8942 4.94599 16.7767 4.77424 16.8102 4.59596C16.8437 4.41754 17.0154 4.30019 17.1937 4.3337L17.7903 4.4451C18.0343 4.49065 18.25 4.63136 18.3903 4.83603C18.5304 5.04086 18.5835 5.29282 18.5378 5.53681Z" fill="#9EA0AD"/>
</g>
<defs>
<clipPath id="clip0_3674_23084">
<rect width="19" height="19" fill="white" transform="translate(0.5 0.5)"/>
</clipPath>
</defs>
</svg>
