<svg width="120" height="120" viewBox="0 0 120 120" fill="none" xmlns="http://www.w3.org/2000/svg">
<rect x="0.5" y="0.5" width="119" height="119" rx="59.5" fill="#F9FAFC"/>
<rect x="0.5" y="0.5" width="119" height="119" rx="59.5" stroke="#F4F5F7"/>
<path d="M80.25 46.4551C72.7575 45.7126 65.22 45.3301 57.705 45.3301C53.25 45.3301 48.795 45.5551 44.34 46.0051L39.75 46.4551" stroke="#330099" stroke-width="3.375" stroke-linecap="round" stroke-linejoin="round"/>
<path d="M52.125 44.1825L52.62 41.235C52.98 39.0975 53.25 37.5 57.0525 37.5H62.9475C66.75 37.5 67.0425 39.1875 67.38 41.2575L67.875 44.1825" stroke="#330099" stroke-width="3.375" stroke-linecap="round" stroke-linejoin="round"/>
<path d="M75.4125 53.5649L73.95 76.2224C73.7025 79.7549 73.5 82.4999 67.2225 82.4999H52.7775C46.5 82.4999 46.2975 79.7549 46.05 76.2224L44.5875 53.5649" stroke="#330099" stroke-width="3.375" stroke-linecap="round" stroke-linejoin="round"/>
<path d="M56.2424 70.125H63.7349" stroke="#330099" stroke-width="3.375" stroke-linecap="round" stroke-linejoin="round"/>
<path d="M54.375 61.125H65.625" stroke="#330099" stroke-width="3.375" stroke-linecap="round" stroke-linejoin="round"/>
</svg>
