<svg width="59" height="59" viewBox="0 0 59 59" fill="none" xmlns="http://www.w3.org/2000/svg">
<path d="M26.8655 47.5418H18.284C16.7724 47.5418 15.4316 47.493 14.237 47.3224C7.82518 46.6154 6.09424 43.5923 6.09424 35.3521V23.1624C6.09424 14.9221 7.82518 11.8991 14.237 11.1921C15.4316 11.0214 16.7724 10.9727 18.284 10.9727H26.7192" stroke="#201F57" stroke-width="3.51064" stroke-linecap="round" stroke-linejoin="round"/>
<path d="M36.6182 10.9727H40.2263C41.7378 10.9727 43.0787 11.0214 44.2733 11.1921C50.6851 11.8991 52.416 14.9221 52.416 23.1624V35.3521C52.416 43.5923 50.6851 46.6154 44.2733 47.3224C43.0787 47.493 41.7378 47.5418 40.2263 47.5418H36.6182" stroke="#201F57" stroke-width="3.51064" stroke-linecap="round" stroke-linejoin="round"/>
<path d="M36.5693 4.87109V53.63" stroke="#201F57" stroke-width="3.51064" stroke-linecap="round" stroke-linejoin="round"/>
<path d="M27.0474 29.258H27.0693" stroke="#201F57" stroke-width="4.68085" stroke-linecap="round" stroke-linejoin="round"/>
<path d="M17.2959 29.258H17.3178" stroke="#201F57" stroke-width="4.68085" stroke-linecap="round" stroke-linejoin="round"/>
</svg>
