<svg width="120" height="120" viewBox="0 0 120 120" fill="none" xmlns="http://www.w3.org/2000/svg">
<rect x="0.5" y="0.5" width="119" height="119" rx="59.5" fill="#F9FAFC"/>
<rect x="0.5" y="0.5" width="119" height="119" rx="59.5" stroke="#F4F5F7"/>
<mask id="mask0_1174_38459" style="mask-type:luminance" maskUnits="userSpaceOnUse" x="37" y="37" width="47" height="47">
<path d="M81.4875 81.4875V39.5125H39.5125V81.4875H81.4875Z" fill="white" stroke="white" stroke-width="4.025"/>
</mask>
<g mask="url(#mask0_1174_38459)">
<path d="M53.4949 64.0938H48.1017C43.239 64.0938 39.297 68.0357 39.297 72.8984C39.297 77.7611 43.239 81.7031 48.1017 81.7031H72.8986C77.7613 81.7031 81.7032 77.7611 81.7032 72.8984C81.7032 68.0357 77.7613 64.0938 72.8986 64.0938H66.7861" stroke="#330099" stroke-width="4.025" stroke-miterlimit="10" stroke-linecap="round" stroke-linejoin="round"/>
<path d="M72.629 72.6648C72.5 72.6648 72.3954 72.7694 72.3954 72.8984C72.3954 73.0274 72.5 73.132 72.629 73.132C72.758 73.132 72.8626 73.0274 72.8626 72.8984C72.8626 72.7694 72.758 72.6648 72.629 72.6648ZM64.5431 72.6648C64.4141 72.6648 64.3095 72.7694 64.3095 72.8984C64.3095 73.0274 64.4141 73.132 64.5431 73.132C64.6721 73.132 64.7767 73.0274 64.7767 72.8984C64.7767 72.7694 64.6721 72.6648 64.5431 72.6648ZM48.3712 72.6648C48.2422 72.6648 48.1376 72.7694 48.1376 72.8984C48.1376 73.0274 48.2422 73.132 48.3712 73.132C48.5002 73.132 48.6048 73.0274 48.6048 72.8984C48.6048 72.7694 48.5002 72.6648 48.3712 72.6648ZM56.4572 73.132C56.5862 73.132 56.6907 73.0274 56.6907 72.8984C56.6907 72.7694 56.5862 72.6648 56.4572 72.6648C56.3282 72.6648 56.2236 72.7694 56.2236 72.8984C56.2236 73.0274 56.3282 73.132 56.4572 73.132Z" fill="#330099" stroke="#330099" stroke-width="4.025"/>
<path d="M60.1407 60.6437C60.2697 60.6437 60.3743 60.5392 60.3743 60.4102C60.3743 60.2812 60.2697 60.1766 60.1407 60.1766C60.0117 60.1766 59.9072 60.2812 59.9072 60.4102C59.9072 60.5392 60.0117 60.6437 60.1407 60.6437Z" fill="#330099" stroke="#330099" stroke-width="4.025"/>
<path d="M60.1443 54.5398V54.4508C60.1443 51.9858 61.3997 49.6624 63.5175 48.3955C64.8976 47.5698 65.7111 46.2266 65.7111 44.7101C65.7111 42.1998 63.6936 40.1648 61.1795 40.1648C59.2423 40.1648 57.0861 41.1531 55.2892 43.2195" stroke="#330099" stroke-width="4.025" stroke-miterlimit="10" stroke-linecap="round" stroke-linejoin="round"/>
</g>
</svg>
